<?xml version="1.0" encoding="UTF-8"?>
<svg version="1.1" xmlns="http://www.w3.org/2000/svg" width="375" height="666">
<path d="M0 0 C0.391875 0.969375 0.78375 1.93875 1.1875 2.9375 C2.67594887 6.22176391 2.67594887 6.22176391 5.6875 6.875 C6.450625 6.91625 7.21375 6.9575 8 7 C9.32 5.35 10.64 3.7 12 2 C13.15837573 5.47512718 12.77265943 7.13670286 12.0625 10.6875 C11.77052734 12.17830078 11.77052734 12.17830078 11.47265625 13.69921875 C11.31667969 14.45847656 11.16070312 15.21773438 11 16 C9.35 16.33 7.7 16.66 6 17 C7.63412443 18.70840281 8.86906094 19.93453047 11 21 C11 21.66 11 22.32 11 23 C12.65 23.66 14.3 24.32 16 25 C15.99214478 24.09906616 15.99214478 24.09906616 15.98413086 23.17993164 C15.96341986 20.47413162 15.95035875 17.76834823 15.9375 15.0625 C15.92912109 14.11697266 15.92074219 13.17144531 15.91210938 12.19726562 C15.90727539 10.84858398 15.90727539 10.84858398 15.90234375 9.47265625 C15.89448853 8.22367554 15.89448853 8.22367554 15.88647461 6.94946289 C16 5 16 5 17 4 C21.05624689 3.66724378 25.12352413 3.57292911 29.19091797 3.44238281 C31.22790534 3.37572304 33.26424098 3.2977814 35.30078125 3.21875 C37.23244141 3.15300781 37.23244141 3.15300781 39.203125 3.0859375 C40.38551758 3.0451709 41.56791016 3.0044043 42.78613281 2.96240234 C46 3 46 3 51 4 C51.33 12.91 51.66 21.82 52 31 C54.64 31 57.28 31 60 31 C60.0928125 29.14375 60.0928125 29.14375 60.1875 27.25 C60.60632808 23.7761906 60.85812764 23.14551011 63.4375 20.5 C66 19 66 19 68 19 C68 18.34 68 17.68 68 17 C67.401875 16.896875 66.80375 16.79375 66.1875 16.6875 C63.4982311 15.8423012 62.53968125 15.38650593 61 13 C60.39541422 8.54466787 60.46790618 5.79814073 63 2 C68.28931984 1.04066258 72.77948076 1.25412713 77.375 4.0625 C78.24125 4.701875 79.1075 5.34125 80 6 C82.73295895 6.104597 82.73295895 6.104597 85 5 C85.66 4.01 86.32 3.02 87 2 C88.79477439 5.81389558 89.37453719 8.78645663 89 13 C88.34 13.66 87.68 14.32 87 15 C84 14.9375 84 14.9375 81 14 C79.625 11.4375 79.625 11.4375 79 9 C78.34 9 77.68 9 77 9 C77 8.34 77 7.68 77 7 C74.36 7 71.72 7 69 7 C69.44703986 11.47883696 69.44703986 11.47883696 72 15 C74.56695745 15.30352537 77.10462068 15.37834543 79.6875 15.4609375 C82 16 82 16 83.25390625 17.9140625 C83.50011719 18.60242188 83.74632812 19.29078125 84 20 C85.05754055 22.2560865 85.98508742 23.98279318 87.625 25.875 C89.53052874 28.81990806 89.57326746 30.56039522 89 34 C84.03559435 38.8337634 80.52258842 39.27917501 73.83203125 39.2265625 C68.74096834 38.81927747 65.23448481 36.82298988 61 34 C61 35.32 61 36.64 61 38 C29.67959553 39.40027356 29.67959553 39.40027356 16 38 C16 37.34 16 36.68 16 36 C15.35675781 36.433125 14.71351563 36.86625 14.05078125 37.3125 C6.81528439 41.77146525 0.4961501 43.50343397 -8 42 C-10.37890625 40.58984375 -10.37890625 40.58984375 -12 39 C-12 38.34 -12 37.68 -12 37 C-12.66 37 -13.32 37 -14 37 C-14.25 30.375 -14.25 30.375 -12 27 C-9.69855891 25.92863949 -7.3659787 24.92010283 -5 24 C-5 23.34 -5 22.68 -5 22 C-6.3921875 21.13375 -6.3921875 21.13375 -7.8125 20.25 C-11.33137023 17.76609161 -12.45031141 15.96031528 -14 12 C-14 11.34 -14 10.68 -14 10 C-13.34 10 -12.68 10 -12 10 C-11.7525 9.40703125 -11.505 8.8140625 -11.25 8.203125 C-9.81031137 5.6656738 -8.34848507 4.45955898 -6 2.75 C-5.29875 2.22921875 -4.5975 1.7084375 -3.875 1.171875 C-2 0 -2 0 0 0 Z M-6 7 C-5 9 -5 9 -5 9 Z M-4 9 C-4.33 9.66 -4.66 10.32 -5 11 C-3.37660195 12.70884005 -1.70680947 14.37446717 0 16 C0.66 16 1.32 16 2 16 C2.22422426 13.78208204 2.22422426 13.78208204 0.125 11.9375 C-1.84671163 9.96324724 -1.84671163 9.96324724 -4 9 Z M37.8671875 9.21875 C37.06152344 9.26386719 36.25585938 9.30898438 35.42578125 9.35546875 C34.16314453 9.42701172 34.16314453 9.42701172 32.875 9.5 C32.02550781 9.54769531 31.17601562 9.59539062 30.30078125 9.64453125 C28.20049292 9.76252498 26.10024279 9.88119839 24 10 C24 12.64 24 15.28 24 18 C30.27 18 36.54 18 43 18 C44.4783226 15.04335481 44.06032783 12.25770263 44 9 C41.94585529 9 39.9181184 9.1032046 37.8671875 9.21875 Z M72 21 C71.13986273 24.26276567 71.13986273 24.26276567 71 28 C73.03504745 31.27061197 74.79155065 32.86103376 78 35 C82.14776273 35.28662433 82.14776273 35.28662433 86 34 C86 32.68 86 31.36 86 30 C83.525 29.01 83.525 29.01 81 28 C80.67 29.32 80.34 30.64 80 32 C76.17330957 28.57611908 74.27721526 25.99275057 73 21 C72.67 21 72.34 21 72 21 Z M-1 24 C-3.75999237 26.2424938 -4.88946638 27.46943863 -5.625 31 C-5.25582438 34.22288956 -5.25582438 34.22288956 -2.4375 36.375 C1.44364784 38.20972443 3.75993551 38.56000852 8 38 C10.08984231 36.91325006 10.08984231 36.91325006 11 35 C11 31.92084415 9.7922101 30.75065212 7.8125 28.375 C4.8934059 25.9099872 2.66914248 24.93861784 -1 24 Z M43 19 C43 20.65 43 22.3 43 24 C41.06833984 23.98259766 41.06833984 23.98259766 39.09765625 23.96484375 C37.41927228 23.9554673 35.74088674 23.94636695 34.0625 23.9375 C33.21236328 23.92912109 32.36222656 23.92074219 31.48632812 23.91210938 C30.67744141 23.90888672 29.86855469 23.90566406 29.03515625 23.90234375 C28.2862915 23.89710693 27.53742676 23.89187012 26.76586914 23.88647461 C24.97332261 23.80658248 24.97332261 23.80658248 24 25 C24 27.31 24 29.62 24 32 C30.27 32 36.54 32 43 32 C43 33.65 43 35.3 43 37 C43.33 37 43.66 37 44 37 C44 31.06 44 25.12 44 19 C43.67 19 43.34 19 43 19 Z M16 33 C17 36 17 36 17 36 Z " fill="#AAACAB" transform="translate(139,285)"/>
<path d="M0 0 C-0.875 6.75 -0.875 6.75 -2 9 C2.29 8.67 6.58 8.34 11 8 C10 12 10 12 9 14 C8.34 14 7.68 14 7 14 C6.71125 14.639375 6.4225 15.27875 6.125 15.9375 C5 18 5 18 3 19 C3 17.02 3 15.04 3 13 C-2.74818783 15.40621816 -6.43946448 18.51688472 -8.9765625 24.1796875 C-10.54877575 28.54368129 -11.36040526 32.31473164 -11 37 C-10.34 37 -9.68 37 -9 37 C-9 37.66 -9 38.32 -9 39 C-7.7035649 38.23721377 -6.41300852 37.46443041 -5.125 36.6875 C-4.40570313 36.25824219 -3.68640625 35.82898438 -2.9453125 35.38671875 C-0.73153667 33.98247625 -0.73153667 33.98247625 1 31 C1.66 31 2.32 31 3 31 C3.99 28.525 3.99 28.525 5 26 C5.66 26 6.32 26 7 26 C6.54901762 27.93922422 6.08894441 29.87633594 5.625 31.8125 C5.36976563 32.89144531 5.11453125 33.97039062 4.8515625 35.08203125 C4 38 4 38 2 41 C-2.85268652 42.61756217 -7.75729333 42.45873545 -12.75 41.4375 C-16.08291161 39.30813981 -17.91920233 36.31156735 -20 33 C-20.7425 33.94875 -21.485 34.8975 -22.25 35.875 C-24.25407713 38.43576523 -25.93121904 39.85862884 -29 41 C-40.84479866 42.31608874 -40.84479866 42.31608874 -45.625 39.25 C-49.970991 35.13274537 -51.01392264 32.95823209 -53 27 C-59.27 27 -65.54 27 -72 27 C-72 29.64 -72 32.28 -72 35 C-71.14450562 34.99214478 -71.14450562 34.99214478 -70.27172852 34.98413086 C-67.70199677 34.96341779 -65.13228253 34.9503581 -62.5625 34.9375 C-61.66466797 34.92912109 -60.76683594 34.92074219 -59.84179688 34.91210938 C-58.98779297 34.90888672 -58.13378906 34.90566406 -57.25390625 34.90234375 C-56.46314697 34.89710693 -55.6723877 34.89187012 -54.85766602 34.88647461 C-53 35 -53 35 -52 36 C-51.95936168 37.66617115 -51.957279 39.33388095 -52 41 C-56.45827926 41.0578304 -60.9164628 41.09353855 -65.375 41.125 C-66.64601562 41.14175781 -67.91703125 41.15851563 -69.2265625 41.17578125 C-70.43828125 41.18222656 -71.65 41.18867188 -72.8984375 41.1953125 C-74.01911621 41.20578613 -75.13979492 41.21625977 -76.29443359 41.22705078 C-79 41 -79 41 -81 39 C-81.99 39.66 -82.98 40.32 -84 41 C-86.48046875 41.1953125 -86.48046875 41.1953125 -89.1875 41.125 C-90.08855469 41.10695313 -90.98960937 41.08890625 -91.91796875 41.0703125 C-92.60503906 41.04710937 -93.29210937 41.02390625 -94 41 C-94 39.35 -94 37.7 -94 36 C-92.02 35.01 -90.04 34.02 -88 33 C-87.67 24.42 -87.34 15.84 -87 7 C-81 6 -81 6 -79 7 C-77.0406396 7.08510205 -75.07837206 7.10717656 -73.1171875 7.09765625 C-71.36728516 7.09282227 -71.36728516 7.09282227 -69.58203125 7.08789062 C-67.74705078 7.07532227 -67.74705078 7.07532227 -65.875 7.0625 C-64.02841797 7.05573242 -64.02841797 7.05573242 -62.14453125 7.04882812 C-59.09630608 7.0370133 -56.04817686 7.02054028 -53 7 C-51.875 10.75 -51.875 10.75 -53 13 C-59.27 13 -65.54 13 -72 13 C-72 15.64 -72 18.28 -72 21 C-65.73 21 -59.46 21 -53 21 C-52.34 19.4325 -51.68 17.865 -51 16.25 C-48.74997164 11.80036409 -46.9036867 9.40363744 -42.24609375 7.5546875 C-36.5068549 6.13734504 -31.82500869 6.08749565 -26.5 8.75 C-24.21748034 10.80426769 -23.02106495 12.14101815 -22 15 C-21.01 15 -20.02 15 -19 15 C-18.814375 14.071875 -18.814375 14.071875 -18.625 13.125 C-18 11 -18 11 -16 9 C-15.505 9.99 -15.505 9.99 -15 11 C-13.35 11 -11.7 11 -10 11 C-9.608125 9.741875 -9.21625 8.48375 -8.8125 7.1875 C-7.65353405 4.06932969 -7.14948172 3.11666866 -4.4375 1 C-2 0 -2 0 0 0 Z M-43 16 C-45.1979747 18.71083547 -45.92397877 20.48957172 -46.4375 23.9375 C-45.87672496 27.86292527 -44.49711051 29.94797605 -42 33 C-38.21650701 35.40550502 -35.37413581 35.13937627 -31.0625 34.55078125 C-28.80365429 34.12192096 -28.80365429 34.12192096 -26.9375 32.0625 C-25.86206569 30.07413969 -25.86206569 30.07413969 -26 28 C-24.1128125 28.1546875 -24.1128125 28.1546875 -22.1875 28.3125 C-20.00901296 28.3854226 -20.00901296 28.3854226 -18 28 C-15.97170628 25.59140121 -15 24.16955691 -15 21 C-17.475 20.505 -17.475 20.505 -20 20 C-20 20.99 -20 21.98 -20 23 C-22.31 23 -24.62 23 -27 23 C-27.020625 21.906875 -27.04125 20.81375 -27.0625 19.6875 C-27.5265625 17.8621875 -27.5265625 17.8621875 -28 16 C-34.21871775 12.49490454 -36.94603837 12.41704312 -43 16 Z " fill="#CECECE" transform="translate(262,333)"/>
<path d="M0 0 C0.66 0.33 1.32 0.66 2 1 C1.67 1.66 1.34 2.32 1 3 C1.66 3 2.32 3 3 3 C3 3.66 3 4.32 3 5 C9.14778871 6.6277833 14.64012196 7.20190089 21 7 C20.34 10.3 19.68 13.6 19 17 C20.32 17.33 21.64 17.66 23 18 C23.33 18.33 23.66 18.66 24 19 C24.33 14.71 24.66 10.42 25 6 C27.56278699 5.94579299 30.12441483 5.90622993 32.6875 5.875 C33.40873047 5.85824219 34.12996094 5.84148437 34.87304688 5.82421875 C39.04876781 5.78608431 42.2494138 6.1210081 46 8 C46 8.66 46 9.32 46 10 C47.299375 9.5978125 47.299375 9.5978125 48.625 9.1875 C52.33112587 8.98160412 52.70984739 9.17846588 55.375 11.4375 C56.24125 12.283125 57.1075 13.12875 58 14 C58.99580078 13.06027344 58.99580078 13.06027344 60.01171875 12.1015625 C61.33623047 10.87566406 61.33623047 10.87566406 62.6875 9.625 C63.55761719 8.81289063 64.42773438 8.00078125 65.32421875 7.1640625 C69.01000539 4.18314892 71.81256658 3.12722501 76.5 2.625 C80.70806583 3.0758642 82.22581072 3.8178417 85 7 C86.29749828 12.53324665 85.7436373 16.70974093 84.3125 22.0625 C84.15072266 22.74376953 83.98894531 23.42503906 83.82226562 24.12695312 C81.90935435 31.58515776 78.1340827 36.493327 72 41 C69.0317441 42.63254074 67.39393228 43.00820692 64 42.9375 C60.11022205 41.72194439 58.54743879 40.16708606 56 37 C55.525625 35.845 55.05125 34.69 54.5625 33.5 C52.64093713 29.19569917 50.70001759 27.81523077 47 25 C46.505 24.01 46.505 24.01 46 23 C44.35 23.33 42.7 23.66 41 24 C41 25.32 41 26.64 41 28 C41.66 28 42.32 28 43 28 C43.83819158 29.62249941 44.6704116 31.24808497 45.5 32.875 C45.9640625 33.77992188 46.428125 34.68484375 46.90625 35.6171875 C48 38 48 38 48 40 C45.36 40 42.72 40 40 40 C38.02 36.37 36.04 32.74 34 29 C33.67 32.63 33.34 36.26 33 40 C30.36 40 27.72 40 25 40 C25 34.39 25 28.78 25 23 C23.906875 24.60875 22.81375 26.2175 21.6875 27.875 C18.82567194 32.08674696 17.02372793 34.6031906 11.8125 35.625 C10.884375 35.74875 9.95625 35.8725 9 36 C9.50603992 38.16874252 9.99983813 39.99967627 11 42 C9.02 44.475 9.02 44.475 7 47 C2.76570244 45.68938409 -1.07407404 44.05643741 -5 42 C-4.75 39.625 -4.75 39.625 -4 37 C-2 35.8125 -2 35.8125 0 35 C2.21264666 30.57470667 1.29045294 25.03473859 0 20.4375 C-0.33 19.633125 -0.66 18.82875 -1 18 C-1.99 18 -2.98 18 -4 18 C-3.835 17.236875 -3.67 16.47375 -3.5 15.6875 C-2.90854604 12.96403764 -2.90854604 12.96403764 -3 10 C-3.66 9.34 -4.32 8.68 -5 8 C-5.4375 5.5625 -5.4375 5.5625 -5 3 C-2.625 1.125 -2.625 1.125 0 0 Z M71 8 C71.55429688 8.19335938 72.10859375 8.38671875 72.6796875 8.5859375 C73.40414062 8.84632813 74.12859375 9.10671875 74.875 9.375 C75.95394531 9.75785156 75.95394531 9.75785156 77.0546875 10.1484375 C80.39410441 11.61027061 81.51902192 13.82647554 83 17 C84.05531596 12.22781484 84.05531596 12.22781484 83.0625 7.5625 C79.39498365 4.78407852 74.35879674 4.64120326 71 8 Z M33 12 C33 14.31 33 16.62 33 19 C37.12973628 18.43260132 37.12973628 18.43260132 41 17 C40.34 15.35 39.68 13.7 39 12 C37.02 12 35.04 12 33 12 Z M67.75 13.5 C65.29431266 17.00812477 65.28321163 19.75182555 65 24 C64.34 24 63.68 24 63 24 C62.67 23.34 62.34 22.68 62 22 C62 23.98 62 25.96 62 28 C67.20695956 28.31241757 70.62483347 27.95069371 75 25 C77.14281337 21.39617751 77.3682188 18.1424615 77 14 C75.18227196 11.79015749 75.18227196 11.79015749 72.625 11.625 C69.92155355 11.81859257 69.92155355 11.81859257 67.75 13.5 Z M3 13 C3 13.99 3 14.98 3 16 C4.32 16 5.64 16 7 16 C6.95875 17.2375 6.9175 18.475 6.875 19.75 C6.86341709 23.01637962 7.1431298 25.2146947 9 28 C11.64 28 14.28 28 17 28 C17.66 26.68 18.32 25.36 19 24 C18.01 23.443125 17.02 22.88625 16 22.3125 C15.01 21.549375 14.02 20.78625 13 20 C12.6875 17.3125 12.6875 17.3125 13 15 C11.41727399 13.41727399 9.61965997 13.65264253 7.4375 13.4375 C6.61121094 13.35371094 5.78492187 13.26992188 4.93359375 13.18359375 C4.29550781 13.12300781 3.65742187 13.06242187 3 13 Z M51 15 C49.19588033 17.75924185 48.9872755 18.88972103 49.375 22.25 C49.58125 23.1575 49.7875 24.065 50 25 C50.99 25.33 51.98 25.66 53 26 C53.33 26.66 53.66 27.32 54 28 C54.52787642 26.02270019 55.04712903 24.04309608 55.5625 22.0625 C55.85253906 20.96035156 56.14257812 19.85820312 56.44140625 18.72265625 C56.62574219 17.82417969 56.81007813 16.92570312 57 16 C55.93354885 14.70366379 55.93354885 14.70366379 53.4375 14.9375 C52.633125 14.958125 51.82875 14.97875 51 15 Z M74 27 C72.700625 27.7115625 72.700625 27.7115625 71.375 28.4375 C68.14612626 29.93234895 65.50966174 30.58218313 62 31 C61.76571687 35.7897321 61.76571687 35.7897321 64 40 C65.98 39.67 67.96 39.34 70 39 C70 38.34 70 37.68 70 37 C70.66 37 71.32 37 72 37 C72.53012738 35.71211992 73.0488329 34.41953322 73.5625 33.125 C73.85253906 32.40570313 74.14257812 31.68640625 74.44140625 30.9453125 C75.2537118 28.94350596 75.2537118 28.94350596 74 27 Z " fill="#DBDDDC" transform="translate(84,334)"/>
<path d="M0 0 C0.77601563 0.09023438 1.55203125 0.18046875 2.3515625 0.2734375 C4.375 0.625 4.375 0.625 6.375 1.625 C6.375 2.285 6.375 2.945 6.375 3.625 C7.035 3.625 7.695 3.625 8.375 3.625 C9.72939668 6.33379335 9.44001451 8.63433268 9.375 11.625 C7.065 11.625 4.755 11.625 2.375 11.625 C2.045 10.305 1.715 8.985 1.375 7.625 C-0.935 7.625 -3.245 7.625 -5.625 7.625 C-3.38004298 12.23963387 -1.18760529 13.47789163 3.375 15.625 C6.637897 17.9211127 9.07503914 19.72511743 10.375 23.625 C11.6125 23.5425 12.85 23.46 14.125 23.375 C18.06444198 23.34032181 18.06444198 23.34032181 20.625 25.6875 C21.2025 26.326875 21.78 26.96625 22.375 27.625 C24.59358253 27.48858623 24.59358253 27.48858623 26.375 26.625 C26.375 25.305 26.375 23.985 26.375 22.625 C25.67375 22.356875 24.9725 22.08875 24.25 21.8125 C21.2100176 20.5568551 18.3022226 19.12264877 15.375 17.625 C15.375 16.965 15.375 16.305 15.375 15.625 C14.715 15.625 14.055 15.625 13.375 15.625 C13.25125 14.820625 13.1275 14.01625 13 13.1875 C12.79375 12.341875 12.5875 11.49625 12.375 10.625 C11.715 10.295 11.055 9.965 10.375 9.625 C11.365 7.645 12.355 5.665 13.375 3.625 C14.035 3.625 14.695 3.625 15.375 3.625 C15.375 2.965 15.375 2.305 15.375 1.625 C20.34002845 -0.48513709 24.23363809 -0.81078074 29.375 0.625 C32.375 2.25 32.375 2.25 34.375 4.625 C34.6875 8.375 34.6875 8.375 34.375 11.625 C32.065 11.625 29.755 11.625 27.375 11.625 C26.715 10.305 26.055 8.985 25.375 7.625 C23.725 7.955 22.075 8.285 20.375 8.625 C21.36121742 11.0982887 21.97565559 12.38245339 24.28515625 13.78515625 C24.99542969 14.08292969 25.70570313 14.38070313 26.4375 14.6875 C28.59765625 15.59765625 28.59765625 15.59765625 30.375 16.625 C30.87 18.11 30.87 18.11 31.375 19.625 C32.365 19.955 33.355 20.285 34.375 20.625 C34.45621924 22.22832791 34.51429134 23.83284026 34.5625 25.4375 C34.61470703 26.77748047 34.61470703 26.77748047 34.66796875 28.14453125 C34.375 30.625 34.375 30.625 33.05078125 32.38671875 C28.7862499 35.53789926 23.42671644 35.08571654 18.375 34.625 C15.06465938 33.14591164 12.79732891 31.3023109 10.375 28.625 C9.715 29.615 9.055 30.605 8.375 31.625 C7.715 31.625 7.055 31.625 6.375 31.625 C6.375 32.285 6.375 32.945 6.375 33.625 C0.81345612 35.21768231 -5.08969703 35.54202448 -10.5625 33.5625 C-13.43700067 30.86221149 -14.31821451 28.33902192 -15.625 24.625 C-15.625 24.295 -15.625 23.965 -15.625 23.625 C-14.34625 23.563125 -13.0675 23.50125 -11.75 23.4375 C-10.67105469 23.38529297 -10.67105469 23.38529297 -9.5703125 23.33203125 C-8.92835938 23.42871094 -8.28640625 23.52539062 -7.625 23.625 C-6.965 24.615 -6.305 25.605 -5.625 26.625 C-2.05097636 27.73687075 -2.05097636 27.73687075 1.375 26.625 C-0.094787 22.78030293 -2.00902785 21.51925779 -5.5625 19.5625 C-11.78906623 16.10533436 -11.78906623 16.10533436 -13.625 13.625 C-14.06048482 9.32557712 -13.34281441 5.61508884 -10.8125 2.125 C-7.1986938 -0.35303853 -4.28596912 -0.53037076 0 0 Z " fill="#C9CAC9" transform="translate(243.625,288.375)"/>
<path d="M0 0 C1.9920303 0.08291953 3.98673713 0.10738177 5.98046875 0.09765625 C7.72553711 0.09282227 7.72553711 0.09282227 9.50585938 0.08789062 C11.32827148 0.07532227 11.32827148 0.07532227 13.1875 0.0625 C15.02731445 0.05573242 15.02731445 0.05573242 16.90429688 0.04882812 C19.93624668 0.03703065 22.96809906 0.02056921 26 0 C27.125 3.75 27.125 3.75 26 6 C19.73 6 13.46 6 7 6 C7 8.64 7 11.28 7 14 C13.27 14 19.54 14 26 14 C26 15.98 26 17.96 26 20 C19.73 20 13.46 20 7 20 C7 22.64 7 25.28 7 28 C7.85549438 27.99214478 7.85549438 27.99214478 8.72827148 27.98413086 C11.29800323 27.96341779 13.86771747 27.9503581 16.4375 27.9375 C17.33533203 27.92912109 18.23316406 27.92074219 19.15820312 27.91210938 C20.01220703 27.90888672 20.86621094 27.90566406 21.74609375 27.90234375 C22.53685303 27.89710693 23.3276123 27.89187012 24.14233398 27.88647461 C26 28 26 28 27 29 C27.04063832 30.66617115 27.042721 32.33388095 27 34 C22.54172074 34.0578304 18.0835372 34.09353855 13.625 34.125 C12.35398438 34.14175781 11.08296875 34.15851563 9.7734375 34.17578125 C8.56171875 34.18222656 7.35 34.18867188 6.1015625 34.1953125 C4.98088379 34.20578613 3.86020508 34.21625977 2.70556641 34.22705078 C0 34 0 34 -2 32 C-2.99 32.66 -3.98 33.32 -5 34 C-7.48046875 34.1953125 -7.48046875 34.1953125 -10.1875 34.125 C-11.08855469 34.10695313 -11.98960937 34.08890625 -12.91796875 34.0703125 C-13.60503906 34.04710937 -14.29210937 34.02390625 -15 34 C-15 32.35 -15 30.7 -15 29 C-13.02 28.01 -11.04 27.02 -9 26 C-8.67 17.42 -8.34 8.84 -8 0 C-3 -1 -3 -1 0 0 Z " fill="#DADCDB" transform="translate(183,340)"/>
<path d="M0 0 C2.64 0 5.28 0 8 0 C8.01981934 0.71655762 8.03963867 1.43311523 8.06005859 2.17138672 C8.15509519 5.4063063 8.26486019 8.64056094 8.375 11.875 C8.4059375 13.00292969 8.436875 14.13085938 8.46875 15.29296875 C8.50742188 16.36933594 8.54609375 17.44570313 8.5859375 18.5546875 C8.6173584 19.54968262 8.6487793 20.54467773 8.68115234 21.56982422 C8.77247083 24.17854517 8.77247083 24.17854517 11 26 C14.08347826 26.16681109 14.08347826 26.16681109 17 26 C18.83315508 22.84825969 19.28752252 20.42435429 19.4140625 16.796875 C19.45273438 15.8171875 19.49140625 14.8375 19.53125 13.828125 C19.5621875 12.81234375 19.593125 11.7965625 19.625 10.75 C19.66367188 9.71875 19.70234375 8.6875 19.7421875 7.625 C19.83631674 5.0835106 19.92194979 2.54202567 20 0 C22.64 0 25.28 0 28 0 C28.05455703 2.97941998 28.09393851 5.95781531 28.125 8.9375 C28.15013672 10.18370117 28.15013672 10.18370117 28.17578125 11.45507812 C28.22643243 17.96375539 28.19413674 25.04926439 24.1875 30.4375 C19.53172816 33.76305132 15.71631838 34.50143144 10 34 C5.89364398 32.55069788 3.18249626 30.78497706 0.80932617 27.07763672 C-1.02351942 22.37250369 -0.39571662 17.09057418 -0.25 12.125 C-0.23195313 10.9596875 -0.21390625 9.794375 -0.1953125 8.59375 C-0.1483382 5.72831751 -0.08266293 2.86458832 0 0 Z " fill="#E4E4E4" transform="translate(97,289)"/>
<path d="M0 0 C1.0209375 0.804375 1.0209375 0.804375 2.0625 1.625 C2.0625 2.285 2.0625 2.945 2.0625 3.625 C2.7225 3.625 3.3825 3.625 4.0625 3.625 C4.44313221 5.9510857 4.77519945 8.28555264 5.0625 10.625 C4.0625 11.625 4.0625 11.625 1 11.6875 C0.030625 11.666875 -0.93875 11.64625 -1.9375 11.625 C-2.5975 10.305 -3.2575 8.985 -3.9375 7.625 C-5.9175 7.625 -7.8975 7.625 -9.9375 7.625 C-8.49866838 11.32822236 -6.90384085 12.47122588 -3.375 14.1875 C-0.93359375 15.37890625 -0.93359375 15.37890625 1.0625 16.625 C1.3925 17.615 1.7225 18.605 2.0625 19.625 C2.7225 19.625 3.3825 19.625 4.0625 19.625 C4.82327768 28.48383347 4.82327768 28.48383347 2.3125 32.25 C-2.65851259 34.35312071 -7.61440259 34.2546924 -12.9375 33.625 C-15.30859375 32.6015625 -15.30859375 32.6015625 -16.9375 31.625 C-16.9375 30.965 -16.9375 30.305 -16.9375 29.625 C-17.5975 29.625 -18.2575 29.625 -18.9375 29.625 C-20.29189668 26.91620665 -20.00251451 24.61566732 -19.9375 21.625 C-17.6275 21.625 -15.3175 21.625 -12.9375 21.625 C-12.73125 22.264375 -12.525 22.90375 -12.3125 23.5625 C-11.05241494 25.95362869 -11.05241494 25.95362869 -7.9375 26.375 C-5.10705119 26.65268183 -5.10705119 26.65268183 -2.9375 26.625 C-2.9375 25.305 -2.9375 23.985 -2.9375 22.625 C-3.5975 22.398125 -4.2575 22.17125 -4.9375 21.9375 C-15.69860478 17.22951666 -15.69860478 17.22951666 -18.0625 11.5625 C-18.79087175 9.057841 -19.01392195 7.93068779 -18.375 5.375 C-13.30643854 -0.79542265 -7.87845418 -3.68778706 0 0 Z " fill="#D2D4D3" transform="translate(291.9375,340.375)"/>
<path d="M0 0 C1.4540625 0.309375 1.4540625 0.309375 2.9375 0.625 C6.28863027 0.4348285 9.60808859 0.04521697 12.9375 -0.375 C12.43146008 1.79374252 11.93766187 3.62467627 10.9375 5.625 C10.2775 5.625 9.6175 5.625 8.9375 5.625 C8.504375 6.5840625 8.504375 6.5840625 8.0625 7.5625 C6.9375 9.625 6.9375 9.625 4.9375 10.625 C4.9375 8.645 4.9375 6.665 4.9375 4.625 C-0.81068783 7.03121816 -4.50196448 10.14188472 -7.0390625 15.8046875 C-8.61127575 20.16868129 -9.42290526 23.93973164 -9.0625 28.625 C-8.4025 28.625 -7.7425 28.625 -7.0625 28.625 C-7.0625 29.285 -7.0625 29.945 -7.0625 30.625 C-5.7660649 29.86221377 -4.47550852 29.08943041 -3.1875 28.3125 C-2.46820313 27.88324219 -1.74890625 27.45398438 -1.0078125 27.01171875 C1.20596333 25.60747625 1.20596333 25.60747625 2.9375 22.625 C3.5975 22.625 4.2575 22.625 4.9375 22.625 C5.5975 20.975 6.2575 19.325 6.9375 17.625 C7.5975 17.625 8.2575 17.625 8.9375 17.625 C8.48651762 19.56422422 8.02644441 21.50133594 7.5625 23.4375 C7.17964844 25.05591797 7.17964844 25.05591797 6.7890625 26.70703125 C5.9375 29.625 5.9375 29.625 3.9375 32.625 C-0.91518652 34.24256217 -5.81979333 34.08373545 -10.8125 33.0625 C-14.14541161 30.93313981 -15.98170233 27.93656735 -18.0625 24.625 C-18.805 25.57375 -19.5475 26.5225 -20.3125 27.5 C-22.31138234 30.05412744 -24.00003296 31.48751224 -27.0625 32.625 C-29.859375 32.8203125 -29.859375 32.8203125 -32.8125 32.75 C-34.28976563 32.72292969 -34.28976563 32.72292969 -35.796875 32.6953125 C-36.54453125 32.67210937 -37.2921875 32.64890625 -38.0625 32.625 C-40.0625 27.875 -40.0625 27.875 -40.0625 25.625 C-39.45921875 25.63660156 -38.8559375 25.64820313 -38.234375 25.66015625 C-37.43515625 25.66917969 -36.6359375 25.67820312 -35.8125 25.6875 C-35.02359375 25.69910156 -34.2346875 25.71070313 -33.421875 25.72265625 C-31.11056481 25.62698944 -29.23554683 25.41908932 -27.0625 24.625 C-26.4128125 23.3875 -26.4128125 23.3875 -25.75 22.125 C-24.9146875 20.8875 -24.9146875 20.8875 -24.0625 19.625 C-22.928125 19.50125 -21.79375 19.3775 -20.625 19.25 C-17.11993951 19.03152377 -17.11993951 19.03152377 -15.7890625 17.08984375 C-14.81320923 15.30322516 -13.93397862 13.4647882 -13.0625 11.625 C-12.4025 10.965 -11.7425 10.305 -11.0625 9.625 C-10.0725 9.625 -9.0825 9.625 -8.0625 9.625 C-5.70526511 7.09315512 -5.0625 6.15309907 -5.0625 2.625 C-3.47970384 0.29245829 -2.86070508 -0.5201282 0 0 Z " fill="#D6D8D7" transform="translate(260.0625,341.375)"/>
<path d="M0 0 C5.28931984 -0.95933742 9.77948076 -0.74587287 14.375 2.0625 C15.24125 2.701875 16.1075 3.34125 17 4 C19.73295895 4.104597 19.73295895 4.104597 22 3 C22.66 2.01 23.32 1.02 24 0 C25.79477439 3.81389558 26.37453719 6.78645663 26 11 C25.34 11.66 24.68 12.32 24 13 C21 12.9375 21 12.9375 18 12 C16.625 9.4375 16.625 9.4375 16 7 C15.34 7 14.68 7 14 7 C14 6.34 14 5.68 14 5 C11.36 5 8.72 5 6 5 C6.44703986 9.47883696 6.44703986 9.47883696 9 13 C11.56695745 13.30352537 14.10462068 13.37834543 16.6875 13.4609375 C19 14 19 14 20.25390625 15.9140625 C20.50011719 16.60242188 20.74632812 17.29078125 21 18 C22.05754055 20.2560865 22.98508742 21.98279318 24.625 23.875 C26.53052874 26.81990806 26.57326746 28.56039522 26 32 C21.79777906 36.09163618 19.11681803 37.12926533 13.375 37.0625 C12.37210938 37.05347656 11.36921875 37.04445313 10.3359375 37.03515625 C9.56507813 37.02355469 8.79421875 37.01195312 8 37 C8 36.67 8 36.34 8 36 C11.465 35.505 11.465 35.505 15 35 C15 34.34 15 33.68 15 33 C17.64 32.67 20.28 32.34 23 32 C23 30.68 23 29.36 23 28 C21.35 27.67 19.7 27.34 18 27 C17.67 27.99 17.34 28.98 17 30 C14.60510457 29.25675659 13.29222384 28.52942646 12.06640625 26.30859375 C11.32780077 24.55926499 10.65950315 22.78065851 10 21 C9.01 22.32 8.02 23.64 7 25 C7 23.02 7 21.04 7 19 C5.68 18.34 4.36 17.68 3 17 C3.66 17 4.32 17 5 17 C5 16.34 5 15.68 5 15 C4.1028125 14.8453125 4.1028125 14.8453125 3.1875 14.6875 C0.4982311 13.8423012 -0.46031875 13.38650593 -2 11 C-2.60458578 6.54466787 -2.53209382 3.79814073 0 0 Z " fill="#B9BCBB" transform="translate(202,287)"/>
<path d="M0 0 C2.97 0.495 2.97 0.495 6 1 C6.33 9.91 6.66 18.82 7 28 C9.64 28 12.28 28 15 28 C15.103125 26.741875 15.20625 25.48375 15.3125 24.1875 C15.64065065 21.68202542 15.88788577 20.18882396 17.1875 18 C19.81240112 16.55177869 22.06170416 16.80411361 25 17 C26 19 26 19 25.8125 21.3125 C26.06671858 24.95629968 27.52843284 26.38720043 30 29 C31.485 29.99 31.485 29.99 33 31 C33.6875 33.125 33.6875 33.125 34 35 C21.98010109 35.5683665 21.98010109 35.5683665 18 32 C18 31.34 18 30.68 18 30 C17.01 30 16.02 30 15 30 C15 31.32 15 32.64 15 34 C10.05 34 5.1 34 0 34 C-1.45755694 9.58592133 -1.45755694 9.58592133 -1 1 C-0.67 0.67 -0.34 0.34 0 0 Z " fill="#DFE1E0" transform="translate(184,288)"/>
<path d="M0 0 C2.875 1.5625 2.875 1.5625 5 4 C6.29749828 9.53324665 5.7436373 13.70974093 4.3125 19.0625 C4.15072266 19.74376953 3.98894531 20.42503906 3.82226562 21.12695312 C1.90935435 28.58515776 -1.8659173 33.493327 -8 38 C-10.9682559 39.63254074 -12.60606772 40.00820692 -16 39.9375 C-19.7738156 38.75818262 -21.49873305 37.01623367 -24 34 C-24 33.34 -24 32.68 -24 32 C-23.34 32 -22.68 32 -22 32 C-22 31.34 -22 30.68 -22 30 C-21.34 30.33 -20.68 30.66 -20 31 C-19.34 29.02 -18.68 27.04 -18 25 C-16.96875 24.896875 -15.9375 24.79375 -14.875 24.6875 C-9.53204122 23.76803975 -9.53204122 23.76803975 -5 21 C-4.12219152 17.66868957 -3.85823065 14.43944765 -4 11 C-5.04703565 9.74323161 -5.04703565 9.74323161 -7.375 9.75 C-9.9473708 9.8069476 -9.9473708 9.8069476 -11.6875 11 C-13.73284894 14.1167222 -14.22537147 17.36520458 -15 21 C-15.66 21 -16.32 21 -17 21 C-18.25348607 18.04893565 -18.01044806 17.02593537 -16.78515625 13.984375 C-16.21667969 12.91703125 -15.64820313 11.8496875 -15.0625 10.75 C-14.49660156 9.67234375 -13.93070313 8.5946875 -13.34765625 7.484375 C-12.90292969 6.66453125 -12.45820313 5.8446875 -12 5 C-12.66 4.67 -13.32 4.34 -14 4 C-9.97070171 -0.02929829 -5.55434637 -0.59510854 0 0 Z M-9 5 C-8.44570312 5.19335938 -7.89140625 5.38671875 -7.3203125 5.5859375 C-6.59585938 5.84632813 -5.87140625 6.10671875 -5.125 6.375 C-4.04605469 6.75785156 -4.04605469 6.75785156 -2.9453125 7.1484375 C0.39410441 8.61027061 1.51902192 10.82647554 3 14 C4.05531596 9.22781484 4.05531596 9.22781484 3.0625 4.5625 C-0.60501635 1.78407852 -5.64120326 1.64120326 -9 5 Z M-6 24 C-7.299375 24.7115625 -7.299375 24.7115625 -8.625 25.4375 C-11.85387374 26.93234895 -14.49033826 27.58218313 -18 28 C-18.23428313 32.7897321 -18.23428313 32.7897321 -16 37 C-14.02 36.67 -12.04 36.34 -10 36 C-10 35.34 -10 34.68 -10 34 C-9.34 34 -8.68 34 -8 34 C-7.46987262 32.71211992 -6.9511671 31.41953322 -6.4375 30.125 C-6.14746094 29.40570313 -5.85742188 28.68640625 -5.55859375 27.9453125 C-4.7462882 25.94350596 -4.7462882 25.94350596 -6 24 Z " fill="#C7C8C7" transform="translate(164,337)"/>
<path d="M0 0 C2.56278699 -0.05420701 5.12441483 -0.09377007 7.6875 -0.125 C8.40873047 -0.14175781 9.12996094 -0.15851563 9.87304688 -0.17578125 C14.04876781 -0.21391569 17.2494138 0.1210081 21 2 C21 2.66 21 3.32 21 4 C21.86625 3.731875 22.7325 3.46375 23.625 3.1875 C27.33112587 2.98160412 27.70984739 3.17846588 30.375 5.4375 C31.24125 6.283125 32.1075 7.12875 33 8 C33.38671875 7.566875 33.7734375 7.13375 34.171875 6.6875 C34.69265625 6.130625 35.2134375 5.57375 35.75 5 C36.51570313 4.1646875 36.51570313 4.1646875 37.296875 3.3125 C39 2 39 2 43 2 C41.8947206 4.80570925 40.74530371 7.52976828 39.4375 10.25 C37.63434606 14.37539764 37.29299682 18.5444276 37 23 C38.32 23.33 39.64 23.66 41 24 C39.35 24 37.7 24 36 24 C36 25.98 36 27.96 36 30 C35.01 29.01 34.02 28.02 33 27 C33 27.66 33 28.32 33 29 C32.01 29 31.02 29 30 29 C29.79375 28.278125 29.5875 27.55625 29.375 26.8125 C27.54751837 23.0744694 25.29561194 21.50753083 22 19 C22.66 16.03 23.32 13.06 24 10 C21.03 9.67 18.06 9.34 15 9 C14.67 8.01 14.34 7.02 14 6 C14.66 6 15.32 6 16 6 C17.2981424 4.8509288 17.2981424 4.8509288 18 2 C12.06 2 6.12 2 0 2 C0 1.34 0 0.68 0 0 Z M26 9 C24.19588033 11.75924185 23.9872755 12.88972103 24.375 16.25 C24.58125 17.1575 24.7875 18.065 25 19 C25.99 19.33 26.98 19.66 28 20 C28.33 20.66 28.66 21.32 29 22 C29.52787642 20.02270019 30.04712903 18.04309608 30.5625 16.0625 C30.85253906 14.96035156 31.14257812 13.85820312 31.44140625 12.72265625 C31.62574219 11.82417969 31.81007812 10.92570312 32 10 C30.93354885 8.70366379 30.93354885 8.70366379 28.4375 8.9375 C27.633125 8.958125 26.82875 8.97875 26 9 Z " fill="#C3C4C4" transform="translate(109,340)"/>
<path d="M0 0 C7.92 0 15.84 0 24 0 C24.33 1.32 24.66 2.64 25 4 C24 5 24 5 22.23413086 5.11352539 C21.48526611 5.10828857 20.73640137 5.10305176 19.96484375 5.09765625 C19.15595703 5.09443359 18.34707031 5.09121094 17.51367188 5.08789062 C16.66353516 5.07951172 15.81339844 5.07113281 14.9375 5.0625 C14.08349609 5.05798828 13.22949219 5.05347656 12.34960938 5.04882812 C10.23304337 5.03700373 8.11651315 5.01906769 6 5 C6 7.64 6 10.28 6 13 C11.94 13 17.88 13 24 13 C24 14.65 24 16.3 24 18 C17.33333333 18 10.66666667 18 4 18 C1.9921136 18.64252365 -0.00882592 19.30741771 -2 20 C-2.05469084 17.9794772 -2.09310129 15.95851112 -2.125 13.9375 C-2.14820313 12.81214844 -2.17140625 11.68679688 -2.1953125 10.52734375 C-2 7 -2 7 0 0 Z " fill="#CDCECE" transform="translate(157,290)"/>
<path d="M0 0 C1.65 0 3.3 0 5 0 C5.66 1.32 6.32 2.64 7 4 C7.66 4 8.32 4 9 4 C9.76077768 12.85883347 9.76077768 12.85883347 7.25 16.625 C2.27898741 18.72812071 -2.67690259 18.6296924 -8 18 C-10.37109375 16.9765625 -10.37109375 16.9765625 -12 16 C-12 15.34 -12 14.68 -12 14 C-12.66 14 -13.32 14 -14 14 C-15.35439668 11.29120665 -15.06501451 8.99066732 -15 6 C-12.69 6 -10.38 6 -8 6 C-7.690625 6.9590625 -7.690625 6.9590625 -7.375 7.9375 C-6.11491494 10.32862869 -6.11491494 10.32862869 -3 10.75 C-0.16955119 11.02768183 -0.16955119 11.02768183 2 11 C1.34 7.37 0.68 3.74 0 0 Z " fill="#DDDDDD" transform="translate(287,356)"/>
<path d="M0 0 C1.89453125 0.25390625 1.89453125 0.25390625 4 1 C5.01171875 2.77734375 5.01171875 2.77734375 5.6875 4.9375 C5.91824219 5.64777344 6.14898437 6.35804688 6.38671875 7.08984375 C6.58910156 7.72019531 6.79148437 8.35054688 7 9 C7.33 9.66 7.66 10.32 8 11 C7.67 11.66 7.34 12.32 7 13 C8.32 13 9.64 13 11 13 C11 13.66 11 14.32 11 15 C9.35 15 7.7 15 6 15 C5.79913557 18.71599191 5.8480563 19.77208445 8 23 C6.68 24.65 5.36 26.3 4 28 C-0.23429756 26.68938409 -4.07407404 25.05643741 -8 23 C-7.75 20.625 -7.75 20.625 -7 18 C-5 16.8125 -5 16.8125 -3 16 C-1.66235937 13.32471874 -1.70058521 10.98012317 -1.5 8 C-1.11111111 2.22222222 -1.11111111 2.22222222 0 0 Z " fill="#E6E8E7" transform="translate(87,353)"/>
<path d="M0 0 C5.875 2.875 5.875 2.875 7 4 C7.07179964 5.51928038 7.08392007 7.04167482 7.0625 8.5625 C7.05347656 9.38878906 7.04445312 10.21507812 7.03515625 11.06640625 C7.02355469 11.70449219 7.01195312 12.34257812 7 13 C-0.7492844 18.21795503 -7.59487864 20.66428073 -17 19 C-19.37890625 17.58984375 -19.37890625 17.58984375 -21 16 C-21 15.34 -21 14.68 -21 14 C-21.66 14 -22.32 14 -23 14 C-23 11.69 -23 9.38 -23 7 C-22.01 7 -21.02 7 -20 7 C-20 6.34 -20 5.68 -20 5 C-18.35 5 -16.7 5 -15 5 C-15 6.98 -15 8.96 -15 11 C-14.21625 11.309375 -13.4325 11.61875 -12.625 11.9375 C-10 13 -10 13 -8 14 C-4.5 14.25 -4.5 14.25 -1 14 C-0.34 13.34 0.32 12.68 1 12 C1.02216246 9.88007625 1.02216246 9.88007625 0.625 7.5625 C0.25796693 4.97192939 0 2.62633415 0 0 Z " fill="#E4E5E4" transform="translate(148,308)"/>
<path d="M0 0 C2.64 0 5.28 0 8 0 C8.01981934 0.7113208 8.03963867 1.4226416 8.06005859 2.15551758 C8.15524867 5.37488816 8.26495229 8.5936045 8.375 11.8125 C8.4059375 12.93205078 8.436875 14.05160156 8.46875 15.20507812 C8.50742188 16.27822266 8.54609375 17.35136719 8.5859375 18.45703125 C8.6173584 19.44678955 8.6487793 20.43654785 8.68115234 21.45629883 C8.83773433 24.24075094 8.83773433 24.24075094 11 27 C9.35 27.33 7.7 27.66 6 28 C6.33 29.32 6.66 30.64 7 32 C3.12837802 30.53145373 1.81757806 28.67080749 0 25 C-0.34057617 22.13745117 -0.34057617 22.13745117 -0.29296875 19.04296875 C-0.28330078 17.93115234 -0.27363281 16.81933594 -0.26367188 15.67382812 C-0.23853516 14.52333984 -0.21339844 13.37285156 -0.1875 12.1875 C-0.17396484 11.01767578 -0.16042969 9.84785156 -0.14648438 8.64257812 C-0.11120278 5.761248 -0.0619028 2.88086096 0 0 Z " fill="#D5D5D5" transform="translate(97,289)"/>
<path d="M0 0 C0.77601563 0.09023438 1.55203125 0.18046875 2.3515625 0.2734375 C4.375 0.625 4.375 0.625 6.375 1.625 C6.375 2.285 6.375 2.945 6.375 3.625 C7.035 3.625 7.695 3.625 8.375 3.625 C9.72939668 6.33379335 9.44001451 8.63433268 9.375 11.625 C7.065 11.625 4.755 11.625 2.375 11.625 C2.045 10.305 1.715 8.985 1.375 7.625 C-1.265 7.625 -3.905 7.625 -6.625 7.625 C-6.295 8.6975 -5.965 9.77 -5.625 10.875 C-4.625 14.625 -4.625 14.625 -4.625 18.625 C-8.14610697 18.625 -9.81052694 17.61428003 -12.4453125 15.3203125 C-14.00280265 13.08206506 -13.95473523 11.75966418 -13.75 9.0625 C-13.01553415 5.15618166 -11.99676171 2.93706517 -8.625 0.625 C-5.58306478 -0.39112212 -3.1672889 -0.39193876 0 0 Z " fill="#DCDEDD" transform="translate(243.625,288.375)"/>
<path d="M0 0 C0 9.57 0 19.14 0 29 C-1.98 29.99 -1.98 29.99 -4 31 C-4.33 31.66 -4.66 32.32 -5 33 C-6.65 33 -8.3 33 -10 33 C-10 31.68 -10 30.36 -10 29 C-9.34 28.67 -8.68 28.34 -8 28 C-7.67 18.76 -7.34 9.52 -7 0 C-2 -1 -2 -1 0 0 Z " fill="#FAFBFA" transform="translate(182,340)"/>
<path d="M0 0 C2.00720923 0.28674418 4.0085944 0.61866701 6 1 C6.16756928 5.4374664 6.33390157 9.87497832 6.5 14.3125 C6.54769531 15.57513672 6.59539062 16.83777344 6.64453125 18.13867188 C6.68964844 19.34716797 6.73476562 20.55566406 6.78125 21.80078125 C6.82314453 22.91622314 6.86503906 24.03166504 6.90820312 25.1809082 C6.97133905 27.11981914 7 29.0600614 7 31 C6.01 31 5.02 31 4 31 C3.67 29.68 3.34 28.36 3 27 C2.01 27 1.02 27 0 27 C-0.88690576 18.35266887 -1.42167137 9.69387143 -1 1 C-0.67 0.67 -0.34 0.34 0 0 Z " fill="#E0E0E0" transform="translate(184,288)"/>
<path d="M0 0 C1.4540625 0.309375 1.4540625 0.309375 2.9375 0.625 C6.28863027 0.4348285 9.60808859 0.04521697 12.9375 -0.375 C12.43146008 1.79374252 11.93766187 3.62467627 10.9375 5.625 C10.2775 5.625 9.6175 5.625 8.9375 5.625 C8.504375 6.5840625 8.504375 6.5840625 8.0625 7.5625 C6.9375 9.625 6.9375 9.625 4.9375 10.625 C4.9375 8.645 4.9375 6.665 4.9375 4.625 C0.08414114 6.65663859 -3.33897444 9.10510651 -6.0625 13.625 C-7.26762024 16.57513434 -8.22263643 19.55232839 -9.0625 22.625 C-11.0625 19.625 -11.0625 19.625 -10.6875 17.4375 C-10.48125 16.839375 -10.275 16.24125 -10.0625 15.625 C-9.4025 15.625 -8.7425 15.625 -8.0625 15.625 C-8.0625 14.635 -8.0625 13.645 -8.0625 12.625 C-9.3825 12.955 -10.7025 13.285 -12.0625 13.625 C-12.0625 14.285 -12.0625 14.945 -12.0625 15.625 C-12.7225 15.295 -13.3825 14.965 -14.0625 14.625 C-13.7325 13.305 -13.4025 11.985 -13.0625 10.625 C-12.299375 10.5425 -11.53625 10.46 -10.75 10.375 C-7.96706504 9.84252191 -7.96706504 9.84252191 -6.25 7.75 C-4.81858932 5.59424372 -4.81858932 5.59424372 -5.0625 2.625 C-3.47970384 0.29245829 -2.86070508 -0.5201282 0 0 Z " fill="#B2B3B3" transform="translate(260.0625,341.375)"/>
<path d="M0 0 C2.875 1.5625 2.875 1.5625 5 4 C5.9721556 7.62938092 6.42294024 9.90035538 5.0625 13.4375 C4.5365625 14.2109375 4.5365625 14.2109375 4 15 C3 12 3 12 2.5 8.375 C2.36754688 5.16893124 2.36754688 5.16893124 1 4 C-1.67058851 3.85884839 -4.32432238 3.95752893 -7 4 C-5.08895362 5.91104638 -2.40439042 6.82338341 0 8 C-0.99 8.33 -1.98 8.66 -3 9 C-3.33 9.66 -3.66 10.32 -4 11 C-4.33 10.67 -4.66 10.34 -5 10 C-7.65024326 9.72102703 -9.36315867 9.62261255 -11.6875 11 C-13.73284894 14.1167222 -14.22537147 17.36520458 -15 21 C-15.66 21 -16.32 21 -17 21 C-18.25348607 18.04893565 -18.01044806 17.02593537 -16.78515625 13.984375 C-16.21667969 12.91703125 -15.64820313 11.8496875 -15.0625 10.75 C-14.49660156 9.67234375 -13.93070313 8.5946875 -13.34765625 7.484375 C-12.90292969 6.66453125 -12.45820313 5.8446875 -12 5 C-12.66 4.67 -13.32 4.34 -14 4 C-9.97070171 -0.02929829 -5.55434637 -0.59510854 0 0 Z " fill="#A5A9A7" transform="translate(164,337)"/>
<path d="M0 0 C3.0831351 1.19899698 6.06279492 2.47700477 9 4 C9 4.66 9 5.32 9 6 C9.99 6.33 10.98 6.66 12 7 C10 8 10 8 9 8 C8.34 9.65 7.68 11.3 7 13 C6.67 12.34 6.34 11.68 6 11 C2.3871899 9.55487596 -0.06687842 9 -4 9 C-4.66 9 -5.32 9 -6 9 C-6.33 11.64 -6.66 14.28 -7 17 C-7.33 17 -7.66 17 -8 17 C-8 15.02 -8 13.04 -8 11 C-8.66 11 -9.32 11 -10 11 C-10.33 11.66 -10.66 12.32 -11 13 C-11 12.34 -11 11.68 -11 11 C-11.66 11 -12.32 11 -13 11 C-13 11.66 -13 12.32 -13 13 C-13.66 12.67 -14.32 12.34 -15 12 C-13.37633534 8.75267068 -10.24612161 8.29844864 -7 7 C-7 6.01 -7 5.02 -7 4 C-5.35 4.33 -3.7 4.66 -2 5 C-1.34 3.35 -0.68 1.7 0 0 Z " fill="#C2C4C2" transform="translate(141,302)"/>
<path d="M0 0 C0.66 0 1.32 0 2 0 C1.54901762 1.93922422 1.08894441 3.87633594 0.625 5.8125 C0.24214844 7.43091797 0.24214844 7.43091797 -0.1484375 9.08203125 C-1 12 -1 12 -3 15 C-7.95818298 16.65272766 -12.98938519 16.58642932 -18 15.125 C-20 14 -20 14 -21 12 C-19.68 12.33 -18.36 12.66 -17 13 C-16.67 11.68 -16.34 10.36 -16 9 C-16 9.66 -16 10.32 -16 11 C-15.34 11 -14.68 11 -14 11 C-14 11.66 -14 12.32 -14 13 C-12.7035649 12.23721377 -11.41300852 11.46443041 -10.125 10.6875 C-9.04605469 10.04361328 -9.04605469 10.04361328 -7.9453125 9.38671875 C-5.73153667 7.98247625 -5.73153667 7.98247625 -4 5 C-3.34 5 -2.68 5 -2 5 C-1.34 3.35 -0.68 1.7 0 0 Z " fill="#CFCFCF" transform="translate(267,359)"/>
<path d="M0 0 C0.99 0 1.98 0 3 0 C3.86625 1.6396875 3.86625 1.6396875 4.75 3.3125 C6.47132025 6.36309602 8.15893392 7.94267629 11 10 C11.61328125 12.08203125 11.61328125 12.08203125 12 14 C-0.01989891 14.5683665 -0.01989891 14.5683665 -4 11 C-4 10.34 -4 9.68 -4 9 C-2.33333333 8 -0.66666667 7 1 6 C1 5.34 1 4.68 1 4 C0.34 3.67 -0.32 3.34 -1 3 C-0.67 2.01 -0.34 1.02 0 0 Z " fill="#DBDFDE" transform="translate(206,309)"/>
<path d="M0 0 C-0.2410148 6.14587738 -0.2410148 6.14587738 -2.40234375 8.578125 C-3.88046971 9.78844931 -5.43647953 10.90220903 -7 12 C-6.67 12.99 -6.34 13.98 -6 15 C-6.99 15.495 -6.99 15.495 -8 16 C-8.66 16.99 -9.32 17.98 -10 19 C-13.625 19.6875 -13.625 19.6875 -17 20 C-17.33 19.01 -17.66 18.02 -18 17 C-16.25 15 -16.25 15 -14 13 C-12.68 13 -11.36 13 -10 13 C-9.92523438 12.39671875 -9.85046875 11.7934375 -9.7734375 11.171875 C-9.01743772 6.5765822 -8.6601387 4.56386847 -5 1.4375 C-2 0 -2 0 0 0 Z " fill="#E3E5E4" transform="translate(262,333)"/>
<path d="M0 0 C3 1.625 3 1.625 5 4 C5.3125 7.75 5.3125 7.75 5 11 C2.69 11 0.38 11 -2 11 C-2.66 9.68 -3.32 8.36 -4 7 C-5.32 7 -6.64 7 -8 7 C-8 6.34 -8 5.68 -8 5 C-7.01 5 -6.02 5 -5 5 C-5 4.34 -5 3.68 -5 3 C-5.66 3 -6.32 3 -7 3 C-7 2.34 -7 1.68 -7 1 C-8.65 1 -10.3 1 -12 1 C-8.18153621 -1.70474518 -4.30934082 -1.16053535 0 0 Z " fill="#D7D9D7" transform="translate(273,289)"/>
<path d="M0 0 C1.9375 0.8125 1.9375 0.8125 4 2 C5 5 5 5 3.92578125 7.375 C3.39339844 8.24125 2.86101562 9.1075 2.3125 10 C1.79300781 10.86625 1.27351563 11.7325 0.73828125 12.625 C-1.00958146 15.01309107 -2.47112784 16.48069716 -5 18 C-8.25 18.1875 -8.25 18.1875 -11 18 C-11 17.67 -11 17.34 -11 17 C-9.35 17 -7.7 17 -6 17 C-6 16.34 -6 15.68 -6 15 C-7.32 15 -8.64 15 -10 15 C-10 13.68 -10 12.36 -10 11 C-6.535 10.505 -6.535 10.505 -3 10 C-2.67 9.01 -2.34 8.02 -2 7 C-2.66 6.34 -3.32 5.68 -4 5 C-3.34 5 -2.68 5 -2 5 C-2 4.34 -2 3.68 -2 3 C-1.34 3 -0.68 3 0 3 C0 2.01 0 1.02 0 0 Z " fill="#BFC2C1" transform="translate(104,351)"/>
<path d="M0 0 C0.98291016 0.00322266 1.96582031 0.00644531 2.97851562 0.00976562 C4.51475586 0.02233398 4.51475586 0.02233398 6.08203125 0.03515625 C7.11779297 0.03966797 8.15355469 0.04417969 9.22070312 0.04882812 C11.77870391 0.06061615 14.33658858 0.0770711 16.89453125 0.09765625 C16.89453125 1.74765625 16.89453125 3.39765625 16.89453125 5.09765625 C8.64453125 5.09765625 0.39453125 5.09765625 -8.10546875 5.09765625 C-8.10546875 3.77765625 -8.10546875 2.45765625 -8.10546875 1.09765625 C-5.10530963 0.09760321 -3.13123119 -0.0180996 0 0 Z " fill="#FAFBFA" transform="translate(165.10546875,316.90234375)"/>
<path d="M0 0 C0.99 0 1.98 0 3 0 C3 0.66 3 1.32 3 2 C3.99 2.33 4.98 2.66 6 3 C6.05395478 4.62463842 6.09277195 6.24978541 6.125 7.875 C6.14820313 8.77992188 6.17140625 9.68484375 6.1953125 10.6171875 C6 13 6 13 4 15 C1.8359375 15.4140625 1.8359375 15.4140625 -0.625 15.625 C-1.44226563 15.69976562 -2.25953125 15.77453125 -3.1015625 15.8515625 C-3.72804688 15.90054687 -4.35453125 15.94953125 -5 16 C-5.33 14.35 -5.66 12.7 -6 11 C-4.35 10.67 -2.7 10.34 -1 10 C-0.67 6.7 -0.34 3.4 0 0 Z " fill="#E5E6E6" transform="translate(272,306)"/>
<path d="M0 0 C0 1.65 0 3.3 0 5 C3.64793184 6.27253436 7.1936543 7.32829194 11 8 C11 8.66 11 9.32 11 10 C10 11 9 12 8 13 C7.67 13.99 7.34 14.98 7 16 C4.69 15.34 2.38 14.68 0 14 C0 13.01 0 12.02 0 11 C-0.99 10.67 -1.98 10.34 -3 10 C-3.6875 6.6875 -3.6875 6.6875 -4 3 C-1.87096774 0 -1.87096774 0 0 0 Z " fill="#F1F3F2" transform="translate(132,292)"/>
<path d="M0 0 C5.625 -0.25 5.625 -0.25 9 2 C9 2.66 9 3.32 9 4 C9.66 4 10.32 4 11 4 C11.38063221 6.3260857 11.71269945 8.66055264 12 11 C11 12 11 12 7.9375 12.0625 C6.968125 12.041875 5.99875 12.02125 5 12 C4.7525 11.030625 4.505 10.06125 4.25 9.0625 C3.8375 8.051875 3.425 7.04125 3 6 C0.96756452 5.03122943 0.96756452 5.03122943 -1 5 C-0.67 3.35 -0.34 1.7 0 0 Z " fill="#DFE1E0" transform="translate(285,340)"/>
<path d="M0 0 C1.98 1.65 3.96 3.3 6 5 C6 4.01 6 3.02 6 2 C6.99 2 7.98 2 9 2 C9.83819158 3.62249941 10.6704116 5.24808497 11.5 6.875 C11.9640625 7.77992188 12.428125 8.68484375 12.90625 9.6171875 C14 12 14 12 14 14 C11.36 14 8.72 14 6 14 C4.9923048 12.2335343 3.99408286 10.46166177 3 8.6875 C2.443125 7.70136719 1.88625 6.71523438 1.3125 5.69921875 C0 3 0 3 0 0 Z " fill="#B9BAB9" transform="translate(118,360)"/>
<path d="M0 0 C0 0.99 0 1.98 0 3 C-0.99 3.495 -0.99 3.495 -2 4 C-2 8.62 -2 13.24 -2 18 C-3.65 17.67 -5.3 17.34 -7 17 C-9.20842803 13.68735796 -9.19725756 13.16548604 -8.6875 9.4375 C-8.53861328 8.25994141 -8.53861328 8.25994141 -8.38671875 7.05859375 C-8 5 -8 5 -7 3 C-6.01 3 -5.02 3 -4 3 C-4 2.34 -4 1.68 -4 1 C-2 0 -2 0 0 0 Z " fill="#E2E5E4" transform="translate(252,354)"/>
<path d="M0 0 C0.99 0 1.98 0 3 0 C2.67 4.62 2.34 9.24 2 14 C-0.64 14 -3.28 14 -6 14 C-5.67 10.04 -5.34 6.08 -5 2 C-3.35 2 -1.7 2 0 2 C0 1.34 0 0.68 0 0 Z " fill="#DADADA" transform="translate(115,360)"/>
<path d="M0 0 C1.98 0.66 3.96 1.32 6 2 C6 3.32 6 4.64 6 6 C6.66 6 7.32 6 8 6 C7.85892253 7.45880109 7.71197585 8.91703551 7.5625 10.375 C7.48128906 11.18710937 7.40007812 11.99921875 7.31640625 12.8359375 C7 15 7 15 6 17 C4.0625 16.625 4.0625 16.625 2 16 C0.5192152 13.0384304 0.64685963 10.16493705 0.4375 6.875 C0.35371094 5.59367187 0.26992187 4.31234375 0.18359375 2.9921875 C0.12300781 2.00476563 0.06242188 1.01734375 0 0 Z " fill="#DFE2E1" transform="translate(160,345)"/>
<path d="M0 0 C0.99 0.33 1.98 0.66 3 1 C2.34 1 1.68 1 1 1 C1 11.89 1 22.78 1 34 C0.01 33.34 -0.98 32.68 -2 32 C-2.99 32.66 -3.98 33.32 -5 34 C-7.48046875 34.1953125 -7.48046875 34.1953125 -10.1875 34.125 C-11.08855469 34.10695313 -11.98960937 34.08890625 -12.91796875 34.0703125 C-13.60503906 34.04710937 -14.29210937 34.02390625 -15 34 C-15 32.35 -15 30.7 -15 29 C-12.69 28.01 -10.38 27.02 -8 26 C-8.66 27.98 -9.32 29.96 -10 32 C-8.68 32.33 -7.36 32.66 -6 33 C-5.67 32.01 -5.34 31.02 -5 30 C-3.35 29.67 -1.7 29.34 0 29 C0 19.43 0 9.86 0 0 Z " fill="#9FA1A0" transform="translate(183,340)"/>
<path d="M0 0 C1.65 0 3.3 0 5 0 C5 3.3 5 6.6 5 10 C6.32 10.33 7.64 10.66 9 11 C7.35 11 5.7 11 4 11 C4 12.98 4 14.96 4 17 C3.01 16.01 2.02 15.02 1 14 C1 14.66 1 15.32 1 16 C0.34 16 -0.32 16 -1 16 C-1 14.35 -1 12.7 -1 11 C-0.34 11 0.32 11 1 11 C1 10.01 1 9.02 1 8 C0.01 8 -0.98 8 -2 8 C-1.125 1.125 -1.125 1.125 0 0 Z " fill="#F8F8F8" transform="translate(141,353)"/>
<path d="M0 0 C0 0.66 0 1.32 0 2 C-0.99 2.495 -0.99 2.495 -2 3 C-1.67 5.97 -1.34 8.94 -1 12 C-1.99 11.34 -2.98 10.68 -4 10 C-4.33 10.99 -4.66 11.98 -5 13 C-5.66 12.67 -6.32 12.34 -7 12 C-7.625 9.9375 -7.625 9.9375 -8 8 C-10.35953094 10.35953094 -10.49141413 11.77895617 -11 15 C-10.34 15.33 -9.68 15.66 -9 16 C-7.875 18.0625 -7.875 18.0625 -7 20 C-10.21365891 18.89184175 -10.9914224 18.01470446 -12.75 15 C-14 12 -14 12 -14 10 C-13.34 10 -12.68 10 -12 10 C-11.7525 9.40703125 -11.505 8.8140625 -11.25 8.203125 C-9.81031137 5.6656738 -8.34848507 4.45955898 -6 2.75 C-5.29875 2.22921875 -4.5975 1.7084375 -3.875 1.171875 C-2 0 -2 0 0 0 Z M-6 7 C-5 9 -5 9 -5 9 Z " fill="#858888" transform="translate(139,285)"/>
<path d="M0 0 C1.98 0.66 3.96 1.32 6 2 C6 2.99 6 3.98 6 5 C6.33 5.66 6.66 6.32 7 7 C8.32 6.67 9.64 6.34 11 6 C11 8.31 11 10.62 11 13 C10.67 12.34 10.34 11.68 10 11 C8.05925139 11.27617533 8.05925139 11.27617533 6 12 C5.01 13.485 5.01 13.485 4 15 C3.34 13.02 2.68 11.04 2 9 C1.01 9 0.02 9 -1 9 C-0.835 8.236875 -0.67 7.47375 -0.5 6.6875 C0.09145396 3.96403764 0.09145396 3.96403764 0 1 C0 0.67 0 0.34 0 0 Z " fill="#A9ABAB" transform="translate(81,343)"/>
<path d="M0 0 C0 9.24 0 18.48 0 28 C-0.33 28 -0.66 28 -1 28 C-1.33 22.06 -1.66 16.12 -2 10 C-3.32 9.34 -4.64 8.68 -6 8 C-7.35439668 5.29120665 -7.06501451 2.99066732 -7 0 C-2.25 -1.125 -2.25 -1.125 0 0 Z " fill="#B8B9B8" transform="translate(182,340)"/>
<path d="M0 0 C-1.58962659 4.03520597 -3.28232318 8.01811282 -5 12 C-7.31 12 -9.62 12 -12 12 C-12 10.68 -12 9.36 -12 8 C-13.32 7.34 -14.64 6.68 -16 6 C-15.01 6 -14.02 6 -13 6 C-12.67 5.34 -12.34 4.68 -12 4 C-11.34 4.66 -10.68 5.32 -10 6 C-9.61328125 5.566875 -9.2265625 5.13375 -8.828125 4.6875 C-8.30734375 4.130625 -7.7865625 3.57375 -7.25 3 C-6.73953125 2.443125 -6.2290625 1.88625 -5.703125 1.3125 C-4 0 -4 0 0 0 Z " fill="#C8CBCB" transform="translate(152,342)"/>
<path d="M0 0 C6.93 0 13.86 0 21 0 C21 1.32 21 2.64 21 4 C18.06152347 4.107834 15.12698849 4.18721916 12.1875 4.25 C11.35412109 4.28351563 10.52074219 4.31703125 9.66210938 4.3515625 C8.85966797 4.36445313 8.05722656 4.37734375 7.23046875 4.390625 C6.12288208 4.4220459 6.12288208 4.4220459 4.99291992 4.45410156 C3 4 3 4 0 0 Z " fill="#F6F8F7" transform="translate(188,355)"/>
<path d="M0 0 C0.99 0.33 1.98 0.66 3 1 C3 2.32 3 3.64 3 5 C3.556875 4.67 4.11375 4.34 4.6875 4 C7.35263324 2.84750995 9.12393149 2.69725595 12 3 C14 5 14 5 14 8 C9.05 8 4.1 8 -1 8 C-1 1 -1 1 0 0 Z " fill="#F7F9F8" transform="translate(185,314)"/>
<path d="M0 0 C2.97 0.495 2.97 0.495 6 1 C6 1.66 6 2.32 6 3 C6.66 3 7.32 3 8 3 C9.35439668 5.70879335 9.06501451 8.00933268 9 11 C6.69 11 4.38 11 2 11 C1.67 9.68 1.34 8.36 1 7 C-0.65 6.67 -2.3 6.34 -4 6 C-3.401875 5.9175 -2.80375 5.835 -2.1875 5.75 C0.5966296 4.79544128 1.43311142 3.42867729 3 1 C2.01 0.67 1.02 0.34 0 0 Z " fill="#C5C5C5" transform="translate(244,289)"/>
<path d="M0 0 C0.80566406 0.00322266 1.61132812 0.00644531 2.44140625 0.00976562 C3.70404297 0.02233398 3.70404297 0.02233398 4.9921875 0.03515625 C5.84167969 0.03966797 6.69117188 0.04417969 7.56640625 0.04882812 C9.66669659 0.06062751 11.7669508 0.07856319 13.8671875 0.09765625 C14.1971875 1.41765625 14.5271875 2.73765625 14.8671875 4.09765625 C11.92913754 4.17852001 8.99330675 4.23808455 6.0546875 4.28515625 C4.80461914 4.32286133 4.80461914 4.32286133 3.52929688 4.36132812 C2.32563477 4.37583008 2.32563477 4.37583008 1.09765625 4.390625 C-0.00993042 4.41419067 -0.00993042 4.41419067 -1.13989258 4.43823242 C-3.65511772 4.00839792 -4.52722766 3.02302563 -6.1328125 1.09765625 C-3.8362755 -0.05061225 -2.54968083 -0.0179555 0 0 Z " fill="#F7F7F7" transform="translate(167.1328125,289.90234375)"/>
<path d="M0 0 C5.875 2.875 5.875 2.875 7 4 C7.07179964 5.51928038 7.08392007 7.04167482 7.0625 8.5625 C7.05347656 9.38878906 7.04445312 10.21507812 7.03515625 11.06640625 C7.02355469 11.70449219 7.01195312 12.34257812 7 13 C5.35 13.33 3.7 13.66 2 14 C-0.55 3.97 -0.55 3.97 -1 1 C-0.67 0.67 -0.34 0.34 0 0 Z " fill="#E5E7E6" transform="translate(148,308)"/>
<path d="M0 0 C5.28 0 10.56 0 16 0 C16 1.32 16 2.64 16 4 C10.06 4 4.12 4 -2 4 C-1.34 2.68 -0.68 1.36 0 0 Z " fill="#FAFAFA" transform="translate(165,304)"/>
<path d="M0 0 C2.35302007 2.35302007 2.39392208 3.27435295 2.75 6.5 C2.89695313 7.69109375 2.89695313 7.69109375 3.046875 8.90625 C3 11 3 11 1 13 C-2.125 12.625 -2.125 12.625 -5 12 C-5.33 10.02 -5.66 8.04 -6 6 C-4.68 6 -3.36 6 -2 6 C-1.34 4.02 -0.68 2.04 0 0 Z " fill="#C1C3C2" transform="translate(225,287)"/>
<path d="M0 0 C-0.50522222 4.37859255 -3.17827222 6.81651224 -6 10 C-6.33 9.34 -6.66 8.68 -7 8 C-9.01669827 6.86649466 -9.01669827 6.86649466 -11 6 C-9.875 3.0625 -9.875 3.0625 -8 0 C-4.81055486 -0.97636076 -3.02827499 -1.51413749 0 0 Z " fill="#A1A4A3" transform="translate(244,361)"/>
<path d="M0 0 C0.33 0.66 0.66 1.32 1 2 C1.66 2.33 2.32 2.66 3 3 C-4.02436254 7.40744316 -9.82632933 7.4485551 -18 7 C-17.35546875 6.71382813 -16.7109375 6.42765625 -16.046875 6.1328125 C-13.80115872 5.18581338 -13.80115872 5.18581338 -13.25 2.875 C-13.1675 2.25625 -13.085 1.6375 -13 1 C-12.484375 1.165 -11.96875 1.33 -11.4375 1.5 C-8.22317332 2.15934906 -5.27153915 2.18175217 -2 2 C-1.34 1.34 -0.68 0.68 0 0 Z " fill="#C3C5C4" transform="translate(149,320)"/>
<path d="M0 0 C2.53942063 2.9490046 4.39393472 5.1211822 5 9 C5.185625 9.9075 5.37125 10.815 5.5625 11.75 C5.706875 12.4925 5.85125 13.235 6 14 C0.33289301 12.68206814 -1.66437233 10.51290803 -5 6 C-3.68 5.67 -2.36 5.34 -1 5 C-0.67 3.35 -0.34 1.7 0 0 Z " fill="#BEBFBE" transform="translate(216,360)"/>
<path d="M0 0 C-0.50603992 2.16874252 -0.99983813 3.99967627 -2 6 C-2.66 6 -3.32 6 -4 6 C-4.433125 6.9590625 -4.433125 6.9590625 -4.875 7.9375 C-6 10 -6 10 -8 11 C-8 9.02 -8 7.04 -8 5 C-9.98 5 -11.96 5 -14 5 C-13 3 -13 3 -10.8203125 2.1484375 C-9.93085938 1.89320313 -9.04140625 1.63796875 -8.125 1.375 C-7.24070312 1.11460937 -6.35640625 0.85421875 -5.4453125 0.5859375 C-3 0 -3 0 0 0 Z " fill="#D7D9D8" transform="translate(273,341)"/>
<path d="M0 0 C0.66 0.66 1.32 1.32 2 2 C4.57061311 2.64767793 4.57061311 2.64767793 7 3 C6.401875 3.2475 5.80375 3.495 5.1875 3.75 C2.68373081 5.18072525 1.51927612 6.5691582 0 9 C0 9.66 0 10.32 0 11 C0.66 11.33 1.32 11.66 2 12 C0.35 11.67 -1.3 11.34 -3 11 C-3 11.99 -3 12.98 -3 14 C-5.31 14 -7.62 14 -10 14 C-10 12.35 -10 10.7 -10 9 C-9.67 10.32 -9.34 11.64 -9 13 C-7.35 13 -5.7 13 -4 13 C-4 10.69 -4 8.38 -4 6 C-3.34 6 -2.68 6 -2 6 C-1.855625 5.38125 -1.71125 4.7625 -1.5625 4.125 C-1 2 -1 2 0 0 Z " fill="#ADAFAE" transform="translate(245,342)"/>
<path d="M0 0 C2.875 1.5625 2.875 1.5625 5 4 C5.9721556 7.62938092 6.42294024 9.90035538 5.0625 13.4375 C4.5365625 14.2109375 4.5365625 14.2109375 4 15 C3 12 3 12 2.5 8.375 C2.36754688 5.16893124 2.36754688 5.16893124 1 4 C-1.52366033 3.96834118 -4.03270105 4.06824712 -6.5546875 4.16015625 C-9 4 -9 4 -12 2 C-7.86763795 -0.00356948 -4.57438521 -0.4901127 0 0 Z " fill="#8D9292" transform="translate(164,337)"/>
<path d="M0 0 C2.64 0 5.28 0 8 0 C8.12375 0.804375 8.2475 1.60875 8.375 2.4375 C8.58125 3.283125 8.7875 4.12875 9 5 C9.66 5.33 10.32 5.66 11 6 C10.01 7.485 10.01 7.485 9 9 C8.34 9 7.68 9 7 9 C7 8.34 7 7.68 7 7 C6.01 7 5.02 7 4 7 C4 6.34 4 5.68 4 5 C3.01 5 2.02 5 1 5 C0.67 3.35 0.34 1.7 0 0 Z " fill="#E4E5E4" transform="translate(228,312)"/>
<path d="M0 0 C2.31 0 4.62 0 7 0 C6.67 2.97 6.34 5.94 6 9 C5.01 9.33 4.02 9.66 3 10 C3 9.34 3 8.68 3 8 C2.34 8 1.68 8 1 8 C-0.35439668 5.29120665 -0.06501451 2.99066732 0 0 Z " fill="#CCCFCD" transform="translate(272,362)"/>
<path d="M0 0 C0.66 0.33 1.32 0.66 2 1 C1.67 1.66 1.34 2.32 1 3 C1.66 3 2.32 3 3 3 C3.33 3.99 3.66 4.98 4 6 C2.5625 8.1875 2.5625 8.1875 1 10 C-0.98 9.34 -2.96 8.68 -5 8 C-5.3125 5.6875 -5.3125 5.6875 -5 3 C-2.625 1.125 -2.625 1.125 0 0 Z " fill="#C2C3C3" transform="translate(84,334)"/>
<path d="M0 0 C3.465 1.485 3.465 1.485 7 3 C6.01 3.495 6.01 3.495 5 4 C5 4.66 5 5.32 5 6 C5.66 6.33 6.32 6.66 7 7 C6.34 7 5.68 7 5 7 C5 9.31 5 11.62 5 14 C4.01 14 3.02 14 2 14 C2.33 12.35 2.66 10.7 3 9 C0.525 8.01 0.525 8.01 -2 7 C-1.34 6.34 -0.68 5.68 0 5 C-0.40929986 2.94603274 -0.40929986 2.94603274 -1 1 C-0.67 0.67 -0.34 0.34 0 0 Z " fill="#B6B8B7" transform="translate(267,302)"/>
<path d="M0 0 C0.66 0.33 1.32 0.66 2 1 C1.773125 1.928125 1.54625 2.85625 1.3125 3.8125 C0.63680017 6.96826848 0.63680017 6.96826848 2.4375 8.875 C2.953125 9.24625 3.46875 9.6175 4 10 C4.66 8.02 5.32 6.04 6 4 C6.33 4 6.66 4 7 4 C6.67 6.31 6.34 8.62 6 11 C6.99 11 7.98 11 9 11 C9 11.99 9 12.98 9 14 C8.34 14 7.68 14 7 14 C7 15.65 7 17.3 7 19 C6.74476563 18.40703125 6.48953125 17.8140625 6.2265625 17.203125 C4.88183502 14.78775462 3.50785633 13.48788294 1.375 11.75 C0.26125 10.8425 -0.8525 9.935 -2 9 C-1.34 6.03 -0.68 3.06 0 0 Z " fill="#939594" transform="translate(133,350)"/>
<path d="M0 0 C2.64 0 5.28 0 8 0 C8 6.27 8 12.54 8 19 C7.67 19 7.34 19 7 19 C6.10395632 12.95170514 5.88730557 7.1105424 6 1 C4.35 1 2.7 1 1 1 C1.33 8.26 1.66 15.52 2 23 C1.01 23.33 0.02 23.66 -1 24 C-0.67 16.08 -0.34 8.16 0 0 Z " fill="#7D7E7E" transform="translate(117,289)"/>
<path d="M0 0 C0.556875 0.78375 1.11375 1.5675 1.6875 2.375 C4.07668565 5.08704858 5.60073413 5.96133543 9 7 C8.01 7.495 8.01 7.495 7 8 C6.34227572 11.02934491 6.34227572 11.02934491 6 14 C4.125 13.8125 4.125 13.8125 2 13 C-0.34747494 8.65717136 0 4.86101564 0 0 Z " fill="#BFC1C0" transform="translate(237,296)"/>
<path d="M0 0 C0.33 0 0.66 0 1 0 C1.01981934 0.7113208 1.03963867 1.4226416 1.06005859 2.15551758 C1.15524867 5.37488816 1.26495229 8.5936045 1.375 11.8125 C1.4059375 12.93205078 1.436875 14.05160156 1.46875 15.20507812 C1.50742188 16.27822266 1.54609375 17.35136719 1.5859375 18.45703125 C1.6173584 19.44678955 1.6487793 20.43654785 1.68115234 21.45629883 C1.83773433 24.24075094 1.83773433 24.24075094 4 27 C2.35 27.33 0.7 27.66 -1 28 C-0.67 29.32 -0.34 30.64 0 32 C-1.32 31.34 -2.64 30.68 -4 30 C-3 28 -2 26 -1 24 C-0.84693099 22.18828902 -0.75053339 20.3716206 -0.68359375 18.5546875 C-0.64169922 17.47832031 -0.59980469 16.40195312 -0.55664062 15.29296875 C-0.49766602 13.60107422 -0.49766602 13.60107422 -0.4375 11.875 C-0.39431641 10.73933594 -0.35113281 9.60367187 -0.30664062 8.43359375 C-0.2003396 5.62252232 -0.09830595 2.81136055 0 0 Z " fill="#707070" transform="translate(104,289)"/>
<path d="M0 0 C0.33 0 0.66 0 1 0 C1.3125 2.75 1.3125 2.75 1 6 C-3.20222094 10.09163618 -5.88318197 11.12926533 -11.625 11.0625 C-12.62789062 11.05347656 -13.63078125 11.04445313 -14.6640625 11.03515625 C-15.43492187 11.02355469 -16.20578125 11.01195312 -17 11 C-17 10.67 -17 10.34 -17 10 C-13.535 9.505 -13.535 9.505 -10 9 C-10 8.34 -10 7.68 -10 7 C-7.36 6.67 -4.72 6.34 -2 6 C-1.855625 5.38125 -1.71125 4.7625 -1.5625 4.125 C-1 2 -1 2 0 0 Z " fill="#777C7B" transform="translate(227,313)"/>
<path d="M0 0 C6.93 0.495 6.93 0.495 14 1 C14 2.32 14 3.64 14 5 C7.77551932 5.42927453 4.84121441 4.99400188 0 1 C0 0.67 0 0.34 0 0 Z " fill="#C4C7C6" transform="translate(207,300)"/>
<path d="M0 0 C0.99 0 1.98 0 3 0 C3.33 3.3 3.66 6.6 4 10 C3.01 10.33 2.02 10.66 1 11 C0.34 10.67 -0.32 10.34 -1 10 C-1.02689216 8.52093108 -1.04634621 7.04172517 -1.0625 5.5625 C-1.07410156 4.73878906 -1.08570313 3.91507812 -1.09765625 3.06640625 C-1 1 -1 1 0 0 Z " fill="#F5F7F6" transform="translate(212,355)"/>
<path d="M0 0 C0.99 0.33 1.98 0.66 3 1 C-0.34969325 6.90184049 -0.34969325 6.90184049 -3 9 C-3.99 9 -4.98 9 -6 9 C-6 9.66 -6 10.32 -6 11 C-6.66 11 -7.32 11 -8 11 C-8 9.68 -8 8.36 -8 7 C-7.34 7 -6.68 7 -6 7 C-5.9175 6.38125 -5.835 5.7625 -5.75 5.125 C-5 3 -5 3 -3 1.8125 C-2.34 1.544375 -1.68 1.27625 -1 1 C-0.67 0.67 -0.34 0.34 0 0 Z " fill="#F8F9F9" transform="translate(220,342)"/>
<path d="M0 0 C1.98 0.66 3.96 1.32 6 2 C4.625 3.5 4.625 3.5 3 5 C2.34 5 1.68 5 1 5 C0.67 7.64 0.34 10.28 0 13 C-0.33 13 -0.66 13 -1 13 C-1 11.02 -1 9.04 -1 7 C-1.66 7 -2.32 7 -3 7 C-3.33 7.66 -3.66 8.32 -4 9 C-4 8.34 -4 7.68 -4 7 C-4.66 7 -5.32 7 -6 7 C-6 7.66 -6 8.32 -6 9 C-6.66 8.67 -7.32 8.34 -8 8 C-6.37633534 4.75267068 -3.24612161 4.29844864 0 3 C0 2.01 0 1.02 0 0 Z " fill="#9B9D9C" transform="translate(134,306)"/>
<path d="M0 0 C6.92645744 -0.44368767 11.4236787 -0.62426644 17 4 C18.3191582 4.69429379 19.64649406 5.37530495 21 6 C19.68 6 18.36 6 17 6 C17.33 7.32 17.66 8.64 18 10 C17.34 9.67 16.68 9.34 16 9 C16 8.34 16 7.68 16 7 C15.34 7 14.68 7 14 7 C14 6.34 14 5.68 14 5 C11.03 4.505 11.03 4.505 8 4 C8.66 3.67 9.32 3.34 10 3 C10 2.34 10 1.68 10 1 C6.7 1.33 3.4 1.66 0 2 C0 1.34 0 0.68 0 0 Z " fill="#969897" transform="translate(202,287)"/>
<path d="M0 0 C0.66 0.66 1.32 1.32 2 2 C0.35 2.66 -1.3 3.32 -3 4 C-2.67 5.32 -2.34 6.64 -2 8 C-4.97 7.505 -4.97 7.505 -8 7 C-8 6.34 -8 5.68 -8 5 C-7.01 5 -6.02 5 -5 5 C-5 4.34 -5 3.68 -5 3 C-5.66 3 -6.32 3 -7 3 C-7 2.34 -7 1.68 -7 1 C-8.65 1 -10.3 1 -12 1 C-7.98612727 -1.84315985 -4.58509907 -0.88743853 0 0 Z " fill="#BCBEBD" transform="translate(273,289)"/>
<path d="M0 0 C1.65 0 3.3 0 5 0 C3.68 0.33 2.36 0.66 1 1 C1.66 4.3 2.32 7.6 3 11 C0.69 10.34 -1.62 9.68 -4 9 C-4.33 7.68 -4.66 6.36 -5 5 C-4.34 5 -3.68 5 -3 5 C-3 4.34 -3 3.68 -3 3 C-2.34 3.33 -1.68 3.66 -1 4 C-0.67 2.68 -0.34 1.36 0 0 Z " fill="#C2C3C2" transform="translate(145,364)"/>
<path d="M0 0 C-1.98 0.99 -1.98 0.99 -4 2 C-4 3.32 -4 4.64 -4 6 C-3.01 6.66 -2.02 7.32 -1 8 C-3.31 8.33 -5.62 8.66 -8 9 C-9 4.125 -9 4.125 -9 3 C-9.66 2.67 -10.32 2.34 -11 2 C-7.36576791 -0.32590854 -4.22911669 -0.16265833 0 0 Z " fill="#A1A3A2" transform="translate(289,339)"/>
<path d="M0 0 C0.33 1.32 0.66 2.64 1 4 C1.66 4 2.32 4 3 4 C3 3.34 3 2.68 3 2 C3.99 2 4.98 2 6 2 C5.67 4.64 5.34 7.28 5 10 C4.67 8.68 4.34 7.36 4 6 C3.01 6.33 2.02 6.66 1 7 C0.67 8.98 0.34 10.96 0 13 C-2.58772586 9.1184112 -1.87719799 7.46573523 -1 3 C-0.67 2.01 -0.34 1.02 0 0 Z " fill="#B4B7B6" transform="translate(211,349)"/>
<path d="M0 0 C0.33 0 0.66 0 1 0 C1 1.98 1 3.96 1 6 C2.32 6.33 3.64 6.66 5 7 C3.35 7 1.7 7 0 7 C0 8.98 0 10.96 0 13 C-0.99 12.01 -1.98 11.02 -3 10 C-3 10.66 -3 11.32 -3 12 C-3.66 12 -4.32 12 -5 12 C-5 10.35 -5 8.7 -5 7 C-4.34 7 -3.68 7 -3 7 C-3 6.34 -3 5.68 -3 5 C-2.34 5 -1.68 5 -1 5 C-0.67 3.35 -0.34 1.7 0 0 Z " fill="#ECEFEE" transform="translate(145,357)"/>
<path d="M0 0 C1.875 0.125 1.875 0.125 4 1 C5.25 4.0625 5.25 4.0625 6 7 C3.36 7 0.72 7 -2 7 C-1.42415568 4.61435923 -0.77772405 2.33317216 0 0 Z " fill="#F5F5F5" transform="translate(126,367)"/>
<path d="M0 0 C1.65 0 3.3 0 5 0 C5.33 0.66 5.66 1.32 6 2 C8.02463255 2.65213292 8.02463255 2.65213292 10 3 C7.12835434 5.70272533 5.69008159 6.94791837 1.6875 7.25 C0.800625 7.1675 -0.08625 7.085 -1 7 C-1 6.67 -1 6.34 -1 6 C0.65 6 2.3 6 4 6 C4 5.34 4 4.68 4 4 C2.68 4 1.36 4 0 4 C0 2.68 0 1.36 0 0 Z " fill="#A2A4A2" transform="translate(94,362)"/>
<path d="M0 0 C0.33 0.66 0.66 1.32 1 2 C1.66 2.33 2.32 2.66 3 3 C2.319375 3.495 2.319375 3.495 1.625 4 C-0.84319974 7.0377843 -1.18843144 10.19187061 -2 14 C-2.66 14 -3.32 14 -4 14 C-5.06528748 11.26980214 -5.07998186 10.20701188 -4.00390625 7.421875 C-3.52824219 6.54015625 -3.05257812 5.6584375 -2.5625 4.75 C-2.08941406 3.85796875 -1.61632812 2.9659375 -1.12890625 2.046875 C-0.75636719 1.37140625 -0.38382813 0.6959375 0 0 Z " fill="#7F8282" transform="translate(151,344)"/>
<path d="M0 0 C0.99 0.33 1.98 0.66 3 1 C2.979375 1.78375 2.95875 2.5675 2.9375 3.375 C2.81315937 5.98114961 2.81315937 5.98114961 4 8 C1.36 7.67 -1.28 7.34 -4 7 C-2.92598892 4.08482708 -2.22189824 2.22189824 0 0 Z " fill="#E3E4E4" transform="translate(88,339)"/>
<path d="M0 0 C2.31 0.66 4.62 1.32 7 2 C7 3.65 7 5.3 7 7 C4.69 6.67 2.38 6.34 0 6 C-1.125 2.25 -1.125 2.25 0 0 Z " fill="#F7F7F7" transform="translate(104,315)"/>
<path d="M0 0 C3.125 0.375 3.125 0.375 6 1 C5.34 2.65 4.68 4.3 4 6 C2.35 5.67 0.7 5.34 -1 5 C-1 5.66 -1 6.32 -1 7 C-1.66 6.67 -2.32 6.34 -3 6 C-2.42655063 3.13275314 -2.1385485 2.1385485 0 0 Z " fill="#F2F2F2" transform="translate(241,289)"/>
<path d="M0 0 C4.75 1.875 4.75 1.875 7 3 C6.67 3.99 6.34 4.98 6 6 C3.6875 6.625 3.6875 6.625 1 7 C0.01 6.34 -0.98 5.68 -2 5 C-1.34 3.35 -0.68 1.7 0 0 Z " fill="#D6D7D7" transform="translate(141,302)"/>
<path d="M0 0 C2.97 0 5.94 0 9 0 C9 0.66 9 1.32 9 2 C2.5 5 2.5 5 -2 5 C-1.34 3.35 -0.68 1.7 0 0 Z " fill="#F6F9F8" transform="translate(203,288)"/>
<path d="M0 0 C1.65 0 3.3 0 5 0 C5 0.66 5 1.32 5 2 C5.66 2 6.32 2 7 2 C7 2.66 7 3.32 7 4 C6.01 4 5.02 4 4 4 C4 4.66 4 5.32 4 6 C2.35 6 0.7 6 -1 6 C-0.67 4.02 -0.34 2.04 0 0 Z " fill="#F3F5F4" transform="translate(261,290)"/>
<path d="M0 0 C0 3 0 3 -1 6 C-0.01 6.66 0.98 7.32 2 8 C-0.64 8 -3.28 8 -6 8 C-6 6.35 -6 4.7 -6 3 C-4.02 2.01 -2.04 1.02 0 0 Z " fill="#B8BAB9" transform="translate(174,366)"/>
<path d="M0 0 C1.42020201 0.22906484 2.83845901 0.47251758 4.25 0.75 C1.63058783 2.49627478 0.21175123 3.13722388 -2.75 3.75 C-2.09 4.41 -1.43 5.07 -0.75 5.75 C-2.73 6.74 -2.73 6.74 -4.75 7.75 C-5.41 6.76 -6.07 5.77 -6.75 4.75 C-7.41 4.42 -8.07 4.09 -8.75 3.75 C-6.12072175 -0.02244271 -4.38091087 -0.51743042 0 0 Z " fill="#909594" transform="translate(262.75,341.25)"/>
<path d="M0 0 C2.31 0.33 4.62 0.66 7 1 C7.33 2.98 7.66 4.96 8 7 C6.68 6.67 5.36 6.34 4 6 C4 5.34 4 4.68 4 4 C3.34 4 2.68 4 2 4 C2 3.34 2 2.68 2 2 C0.68 2.33 -0.64 2.66 -2 3 C-1.34 2.01 -0.68 1.02 0 0 Z " fill="#F1F4F3" transform="translate(215,306)"/>
<path d="M0 0 C0.66 0.33 1.32 0.66 2 1 C2 1.99 2 2.98 2 4 C-2.05594629 6.02797315 -4.62646926 6.23599782 -9 5 C-10.875 3.4375 -10.875 3.4375 -12 2 C-11.13375 2.185625 -10.2675 2.37125 -9.375 2.5625 C-5.94847372 3.00667933 -3.35787629 2.71954492 0 2 C0 1.34 0 0.68 0 0 Z " fill="#7B7B7B" transform="translate(154,371)"/>
<path d="M0 0 C1.9375 0.125 1.9375 0.125 4 1 C5.25 3.5625 5.25 3.5625 6 6 C5.34 6.66 4.68 7.32 4 8 C2.0625 7.3125 2.0625 7.3125 0 6 C-0.8125 3.4375 -0.8125 3.4375 -1 1 C-0.67 0.67 -0.34 0.34 0 0 Z " fill="#F1F1F1" transform="translate(256,313)"/>
<path d="M0 0 C0.99 0 1.98 0 3 0 C3 0.66 3 1.32 3 2 C4.65 2 6.3 2 8 2 C8 2.66 8 3.32 8 4 C7.01 4.33 6.02 4.66 5 5 C5.66 5.66 6.32 6.32 7 7 C5.35 7 3.7 7 2 7 C0 2.25 0 2.25 0 0 Z " fill="#F2F3F3" transform="translate(220,367)"/>
<path d="M0 0 C0.45375 0.639375 0.9075 1.27875 1.375 1.9375 C2.83921726 4.09702406 2.83921726 4.09702406 5 5 C5 5.99 5 6.98 5 8 C4.34 8 3.68 8 3 8 C3 8.66 3 9.32 3 10 C2.01 10 1.02 10 0 10 C-1.125 3.375 -1.125 3.375 0 0 Z " fill="#F6F8F7" transform="translate(99,346)"/>
<path d="M0 0 C2.31 0.33 4.62 0.66 7 1 C6.67 3.31 6.34 5.62 6 8 C3.5625 6.8125 3.5625 6.8125 1 5 C0.1875 2.3125 0.1875 2.3125 0 0 Z " fill="#F4F7F6" transform="translate(126,349)"/>
<path d="M0 0 C0.33 0.66 0.66 1.32 1 2 C1.66 2.33 2.32 2.66 3 3 C-1.77357872 5.71391278 -5.34388537 7.56561146 -11 7 C-11 6.67 -11 6.34 -11 6 C-9.35 6 -7.7 6 -6 6 C-6.33 5.01 -6.66 4.02 -7 3 C-5.5459375 2.5359375 -5.5459375 2.5359375 -4.0625 2.0625 C-1.15934208 1.30476658 -1.15934208 1.30476658 0 0 Z " fill="#8A8B8A" transform="translate(149,320)"/>
<path d="M0 0 C2.5 1.5625 2.5 1.5625 5 4 C5.3125 7.75 5.3125 7.75 5 11 C4.67 10.01 4.34 9.02 4 8 C2.35 7.67 0.7 7.34 -1 7 C-0.34 6.67 0.32 6.34 1 6 C0.67 4.02 0.34 2.04 0 0 Z " fill="#B6B8B7" transform="translate(222,307)"/>
<path d="M0 0 C0.66 0 1.32 0 2 0 C2.33 0.99 2.66 1.98 3 3 C2.67 3.66 2.34 4.32 2 5 C3.65 5 5.3 5 7 5 C7.33 6.32 7.66 7.64 8 9 C7.67 8.34 7.34 7.68 7 7 C6.071875 7.061875 5.14375 7.12375 4.1875 7.1875 C1 7 1 7 -0.875 5.5 C-1.24625 5.005 -1.6175 4.51 -2 4 C-1.34 2.68 -0.68 1.36 0 0 Z " fill="#F8FAF9" transform="translate(244,304)"/>
<path d="M0 0 C0 0.66 0 1.32 0 2 C-1 3 -2 4 -3 5 C-3.33 5.99 -3.66 6.98 -4 8 C-6.31 7.34 -8.62 6.68 -11 6 C-10.01 5.34 -9.02 4.68 -8 4 C-6.989375 3.29875 -5.97875 2.5975 -4.9375 1.875 C-2 0 -2 0 0 0 Z " fill="#E9EBEB" transform="translate(143,300)"/>
<path d="M0 0 C0.99 0.99 1.98 1.98 3 3 C1.68 4.65 0.36 6.3 -1 8 C-2.98 7.34 -4.96 6.68 -7 6 C-7 5.67 -7 5.34 -7 5 C-5.824375 4.87625 -5.824375 4.87625 -4.625 4.75 C-1.85250896 4.27193661 -1.85250896 4.27193661 -0.6875 1.9375 C-0.460625 1.298125 -0.23375 0.65875 0 0 Z " fill="#989998" transform="translate(92,373)"/>
<path d="M0 0 C1.65 0.33 3.3 0.66 5 1 C5.33 1.99 5.66 2.98 6 4 C1.545 5.485 1.545 5.485 -3 7 C-3.66 6.34 -4.32 5.68 -5 5 C-3.35 4.34 -1.7 3.68 0 3 C0 2.01 0 1.02 0 0 Z " fill="#EDEFEF" transform="translate(202,312)"/>
<path d="M0 0 C1.65 0.33 3.3 0.66 5 1 C4.814375 1.78375 4.62875 2.5675 4.4375 3.375 C3.74037734 5.97089775 3.74037734 5.97089775 5 8 C1.34683329 6.75023244 0.21934164 6.32901247 -2 3 C-1.34 2.01 -0.68 1.02 0 0 Z " fill="#D4D5D5" transform="translate(234,300)"/>
<path d="M0 0 C0.99 0.33 1.98 0.66 3 1 C2.34 1.66 1.68 2.32 1 3 C0.35232207 5.57061311 0.35232207 5.57061311 0 8 C0.66 8.33 1.32 8.66 2 9 C3.125 11.0625 3.125 11.0625 4 13 C0.78634109 11.89184175 0.0085776 11.01470446 -1.75 8 C-3 5 -3 5 -3 3 C-2.34 3 -1.68 3 -1 3 C-0.67 2.01 -0.34 1.02 0 0 Z " fill="#BABBBC" transform="translate(128,292)"/>
<path d="M0 0 C1.32 0 2.64 0 4 0 C3.6875 2.375 3.6875 2.375 3 5 C2.01 5.66 1.02 6.32 0 7 C-0.66 6.34 -1.32 5.68 -2 5 C-1.34 3.35 -0.68 1.7 0 0 Z " fill="#C0C2C1" transform="translate(157,367)"/>
<path d="M0 0 C0.66 0.33 1.32 0.66 2 1 C1.67 1.66 1.34 2.32 1 3 C-1 3.33333333 -3 3.66666667 -5 4 C-5.33 4.66 -5.66 5.32 -6 6 C-7.98 5.34 -9.96 4.68 -12 4 C-12 3.67 -12 3.34 -12 3 C-10.948125 2.87625 -9.89625 2.7525 -8.8125 2.625 C-5.09963555 2.15746422 -5.09963555 2.15746422 -2.1875 0.875 C-1.465625 0.58625 -0.74375 0.2975 0 0 Z " fill="#6C6E6D" transform="translate(158,359)"/>
<path d="M0 0 C0.66 0.33 1.32 0.66 2 1 C1.773125 1.928125 1.54625 2.85625 1.3125 3.8125 C1.209375 4.864375 1.10625 5.91625 1 7 C2.37514541 8.7087646 2.37514541 8.7087646 4 10 C4 10.99 4 11.98 4 13 C1.6671565 12.0668626 0.22342795 11.27420702 -1.375 9.3125 C-2.31041238 5.8514742 -1.14707553 3.31377375 0 0 Z " fill="#787A7A" transform="translate(133,350)"/>
<path d="M0 0 C0.99 0.33 1.98 0.66 3 1 C2.67 1.99 2.34 2.98 2 4 C2.66 4.33 3.32 4.66 4 5 C1.69 5.66 -0.62 6.32 -3 7 C-3.33 6.01 -3.66 5.02 -4 4 C-2.68 2.68 -1.36 1.36 0 0 Z " fill="#F6F8F7" transform="translate(248,346)"/>
<path d="M0 0 C-1.11375 0.45375 -2.2275 0.9075 -3.375 1.375 C-6.96199008 2.72465986 -6.96199008 2.72465986 -9 5 C-9.66 4.67 -10.32 4.34 -11 4 C-11.33 5.32 -11.66 6.64 -12 8 C-12.66 8 -13.32 8 -14 8 C-13.36832533 5.15746398 -12.63251627 3.44861286 -10.2265625 1.7421875 C-4.21288639 -1.45467378 -4.21288639 -1.45467378 0 0 Z " fill="#9F9F9F" transform="translate(226,341)"/>
<path d="M0 0 C0.66 0 1.32 0 2 0 C1.34 2.64 0.68 5.28 0 8 C-1.32 8.33 -2.64 8.66 -4 9 C-4.33 8.34 -4.66 7.68 -5 7 C-4.67 6.34 -4.34 5.68 -4 5 C-3.34 5 -2.68 5 -2 5 C-1.34 3.35 -0.68 1.7 0 0 Z " fill="#9B9C9B" transform="translate(267,359)"/>
<path d="M0 0 C1.65 0 3.3 0 5 0 C5 1.32 5 2.64 5 4 C5.66 4.66 6.32 5.32 7 6 C4.625 6.125 4.625 6.125 2 6 C1.34 5.34 0.68 4.68 0 4 C0 2.68 0 1.36 0 0 Z " fill="#F6F8F7" transform="translate(262,302)"/>
<path d="M0 0 C0.66 0 1.32 0 2 0 C2 1.65 2 3.3 2 5 C-0.31 5.33 -2.62 5.66 -5 6 C-5.66 5.01 -6.32 4.02 -7 3 C-5.68 3 -4.36 3 -3 3 C-1.37485532 1.54166642 -1.37485532 1.54166642 0 0 Z " fill="#BCBDBD" transform="translate(148,296)"/>
<path d="M0 0 C1.98 0 3.96 0 6 0 C5.34 1.98 4.68 3.96 4 6 C2.68 5.34 1.36 4.68 0 4 C0 2.68 0 1.36 0 0 Z " fill="#E4E6E5" transform="translate(237,362)"/>
<path d="M0 0 C0.33 0 0.66 0 1 0 C1.33 6.93 1.66 13.86 2 21 C1.01 21.33 0.02 21.66 -1 22 C-0.67 14.74 -0.34 7.48 0 0 Z " fill="#A1A1A1" transform="translate(117,291)"/>
<path d="M0 0 C0.33 0.66 0.66 1.32 1 2 C1.66 2 2.32 2 3 2 C3 2.66 3 3.32 3 4 C4.32 3.67 5.64 3.34 7 3 C6.67 3.66 6.34 4.32 6 5 C3.35139573 5.59355614 0.70802678 5.74209269 -2 6 C-2.66 5.01 -3.32 4.02 -4 3 C-2.68 3.33 -1.36 3.66 0 4 C0 2.68 0 1.36 0 0 Z " fill="#838583" transform="translate(250,368)"/>
<path d="M0 0 C2.4375 0.375 2.4375 0.375 5 1 C5.33 1.66 5.66 2.32 6 3 C5.67 3.99 5.34 4.98 5 6 C3.0625 5.25 3.0625 5.25 1 4 C0.25 1.875 0.25 1.875 0 0 Z " fill="#F5F8F7" transform="translate(119,359)"/>
<path d="M0 0 C1.98 0 3.96 0 6 0 C6.33 1.32 6.66 2.64 7 4 C5.68 4.99 4.36 5.98 3 7 C3 5.02 3 3.04 3 1 C2.01 0.67 1.02 0.34 0 0 Z " fill="#AAACAB" transform="translate(262,345)"/>
<path d="M0 0 C2 2 2 2 2.125 4.625 C2.08375 5.40875 2.0425 6.1925 2 7 C-0.64 7.33 -3.28 7.66 -6 8 C-6 7.34 -6 6.68 -6 6 C-4.68 6 -3.36 6 -2 6 C-1.34 4.02 -0.68 2.04 0 0 Z " fill="#CED1D0" transform="translate(225,287)"/>
<path d="M0 0 C1.32 0.66 2.64 1.32 4 2 C3.01 2 2.02 2 1 2 C1.66 4.31 2.32 6.62 3 9 C0.525 8.01 0.525 8.01 -2 7 C-2 6.34 -2 5.68 -2 5 C-1.34 5 -0.68 5 0 5 C-0.33 4.01 -0.66 3.02 -1 2 C-0.67 1.34 -0.34 0.68 0 0 Z " fill="#ABADB1" transform="translate(286,354)"/>
<path d="M0 0 C0 1.65 0 3.3 0 5 C-1.32 5.33 -2.64 5.66 -4 6 C-4 5.01 -4 4.02 -4 3 C-4.99 2.67 -5.98 2.34 -7 2 C-2.25 0 -2.25 0 0 0 Z " fill="#EEF0EF" transform="translate(286,354)"/>
<path d="M0 0 C0 0.99 0 1.98 0 3 C-1.43534841 3.2226746 -2.87345525 3.42761906 -4.3125 3.625 C-5.11300781 3.74101562 -5.91351563 3.85703125 -6.73828125 3.9765625 C-9 4 -9 4 -12 2 C-7.8794254 0.00214565 -4.54805635 -0.17835515 0 0 Z " fill="#49514C" transform="translate(164,337)"/>
<path d="M0 0 C-0.33 2.31 -0.66 4.62 -1 7 C-1.66 7 -2.32 7 -3 7 C-3 5.68 -3 4.36 -3 3 C-4.32 3.33 -5.64 3.66 -7 4 C-5.53303752 1.06607504 -3.25996861 0 0 0 Z " fill="#888989" transform="translate(262,333)"/>
<path d="M0 0 C0.66 0.33 1.32 0.66 2 1 C1.67 2.32 1.34 3.64 1 5 C-0.093125 4.979375 -1.18625 4.95875 -2.3125 4.9375 C-5.94384191 4.81455548 -5.94384191 4.81455548 -9 6 C-9 5.01 -9 4.02 -9 3 C-6.03 3 -3.06 3 0 3 C0 2.01 0 1.02 0 0 Z " fill="#606363" transform="translate(221,302)"/>
<path d="M0 0 C0.99 0 1.98 0 3 0 C3 1.65 3 3.3 3 5 C1.35 5 -0.3 5 -2 5 C-1.125 1.125 -1.125 1.125 0 0 Z " fill="#F6F8F7" transform="translate(238,350)"/>
<path d="M0 0 C0.99 0 1.98 0 3 0 C3 1.98 3 3.96 3 6 C2.01 6.495 2.01 6.495 1 7 C1 6.01 1 5.02 1 4 C0.34 4 -0.32 4 -1 4 C-0.67 2.68 -0.34 1.36 0 0 Z " fill="#E7E8E8" transform="translate(160,363)"/>
<path d="M0 0 C0.33 0 0.66 0 1 0 C1.38063221 2.3260857 1.71269945 4.66055264 2 7 C1 8 1 8 -2.0625 8.0625 C-3.031875 8.041875 -4.00125 8.02125 -5 8 C-3.68 7.67 -2.36 7.34 -1 7 C-1.20625 6.401875 -1.4125 5.80375 -1.625 5.1875 C-2 3 -2 3 0 0 Z " fill="#AEB1B0" transform="translate(295,344)"/>
<path d="M0 0 C0.99 0 1.98 0 3 0 C2.67 2.31 2.34 4.62 2 7 C0.68 7 -0.64 7 -2 7 C-1.42415568 4.61435923 -0.77772405 2.33317216 0 0 Z " fill="#EFF1F0" transform="translate(292,344)"/>
<path d="M0 0 C5.78461538 3.44615385 5.78461538 3.44615385 6.875 6.25 C6.936875 7.11625 6.936875 7.11625 7 8 C6.34 7.34 5.68 6.68 5 6 C2.42938689 5.35232207 2.42938689 5.35232207 0 5 C0 3.35 0 1.7 0 0 Z " fill="#989A99" transform="translate(246,304)"/>
<path d="M0 0 C1.65 0 3.3 0 5 0 C5.33 0.66 5.66 1.32 6 2 C5.01 2.66 4.02 3.32 3 4 C2.67 4.99 2.34 5.98 2 7 C1.34 4.69 0.68 2.38 0 0 Z " fill="#D6D8D7" transform="translate(287,356)"/>
<path d="M0 0 C0.33 1.65 0.66 3.3 1 5 C0.01 5.33 -0.98 5.66 -2 6 C-2.66 5.67 -3.32 5.34 -4 5 C-4 3.68 -4 2.36 -4 1 C-2 0 -2 0 0 0 Z " fill="#F6FAF9" transform="translate(259,336)"/>
<path d="M0 0 C1.9375 0.3125 1.9375 0.3125 4 1 C4.33 1.99 4.66 2.98 5 4 C2.36 4 -0.28 4 -3 4 C-2.34 3.67 -1.68 3.34 -1 3 C-0.67 2.01 -0.34 1.02 0 0 Z " fill="#F1F4F3" transform="translate(213,319)"/>
<path d="M0 0 C-1.32 0.33 -2.64 0.66 -4 1 C-3.67 2.32 -3.34 3.64 -3 5 C-3.66 4.67 -4.32 4.34 -5 4 C-5 3.34 -5 2.68 -5 2 C-5.66 2 -6.32 2 -7 2 C-7 1.34 -7 0.68 -7 0 C-7.66 -0.33 -8.32 -0.66 -9 -1 C-5.79937313 -2.60031344 -3.27728194 -1.03173691 0 0 Z " fill="#7B7E7D" transform="translate(223,292)"/>
<path d="M0 0 C2.475 0.495 2.475 0.495 5 1 C5 2.32 5 3.64 5 5 C3.35 4.67 1.7 4.34 0 4 C0 2.68 0 1.36 0 0 Z " fill="#EEF1F0" transform="translate(183,289)"/>
<path d="M0 0 C0 0.66 0 1.32 0 2 C-0.66 2 -1.32 2 -2 2 C-2.33 2.66 -2.66 3.32 -3 4 C-3 3.34 -3 2.68 -3 2 C-5.33075929 2.95865509 -5.33075929 2.95865509 -7 6 C-6.75 3.625 -6.75 3.625 -6 1 C-2.69333333 -1.34666667 -2.69333333 -1.34666667 0 0 Z " fill="#A9AAA9" transform="translate(86,370)"/>
<path d="M0 0 C0.99 0.33 1.98 0.66 3 1 C4.1875 4.5625 4.1875 4.5625 5 8 C4.34 8 3.68 8 3 8 C3 7.34 3 6.68 3 6 C2.34 6 1.68 6 1 6 C0.67 4.02 0.34 2.04 0 0 Z " fill="#969797" transform="translate(272,364)"/>
<path d="M0 0 C1.9375 0.3125 1.9375 0.3125 4 1 C4.33 1.99 4.66 2.98 5 4 C3.02 4.33 1.04 4.66 -1 5 C-0.67 3.35 -0.34 1.7 0 0 Z " fill="#F4F7F7" transform="translate(87,353)"/>
<path d="M0 0 C1.65 0.33 3.3 0.66 5 1 C4.67 1.99 4.34 2.98 4 4 C2.35 3.67 0.7 3.34 -1 3 C-0.67 2.01 -0.34 1.02 0 0 Z " fill="#F8FAF9" transform="translate(205,305)"/>
<path d="M0 0 C2.05078125 0.03255208 4.1015625 0.06510417 6.15234375 0.09765625 C5.82234375 0.75765625 5.49234375 1.41765625 5.15234375 2.09765625 C3.50234375 2.09765625 1.85234375 2.09765625 0.15234375 2.09765625 C-0.17765625 3.41765625 -0.50765625 4.73765625 -0.84765625 6.09765625 C-1.50765625 4.44765625 -2.16765625 2.79765625 -2.84765625 1.09765625 C-1.84765625 0.09765625 -1.84765625 0.09765625 0 0 Z " fill="#939393" transform="translate(255.84765625,311.90234375)"/>
<path d="M0 0 C2.64 0 5.28 0 8 0 C7.01 2.64 6.02 5.28 5 8 C4.67 8 4.34 8 4 8 C4 6.02 4 4.04 4 2 C2.68 1.34 1.36 0.68 0 0 Z " fill="#A7A9A8" transform="translate(205,304)"/>
<path d="M0 0 C3 3.75 3 3.75 3 6 C0.36 6 -2.28 6 -5 6 C-4.360625 5.566875 -3.72125 5.13375 -3.0625 4.6875 C-0.73253997 3.08760823 -0.73253997 3.08760823 0 0 Z " fill="#959595" transform="translate(129,368)"/>
<path d="M0 0 C0.66 0 1.32 0 2 0 C2 1.98 2 3.96 2 6 C0.68 5.67 -0.64 5.34 -2 5 C-1.34 3.35 -0.68 1.7 0 0 Z " fill="#F8FAF9" transform="translate(164,356)"/>
<path d="M0 0 C0 0.66 0 1.32 0 2 C-2.31 2 -4.62 2 -7 2 C-7 1.34 -7 0.68 -7 0 C-4.3333581 -1.33332095 -2.83319697 -0.67102033 0 0 Z " fill="#FAFBFB" transform="translate(139,346)"/>
<path d="" fill="#000000" transform="translate(0,0)"/>
<path d="" fill="#000000" transform="translate(0,0)"/>
<path d="" fill="#000000" transform="translate(0,0)"/>
<path d="" fill="#000000" transform="translate(0,0)"/>
<path d="" fill="#000000" transform="translate(0,0)"/>
<path d="" fill="#000000" transform="translate(0,0)"/>
<path d="" fill="#000000" transform="translate(0,0)"/>
<path d="" fill="#000000" transform="translate(0,0)"/>
<path d="" fill="#000000" transform="translate(0,0)"/>
<path d="" fill="#000000" transform="translate(0,0)"/>
<path d="" fill="#000000" transform="translate(0,0)"/>
<path d="" fill="#000000" transform="translate(0,0)"/>
<path d="" fill="#000000" transform="translate(0,0)"/>
<path d="" fill="#000000" transform="translate(0,0)"/>
<path d="" fill="#000000" transform="translate(0,0)"/>
<path d="" fill="#000000" transform="translate(0,0)"/>
<path d="" fill="#000000" transform="translate(0,0)"/>
<path d="" fill="#000000" transform="translate(0,0)"/>
<path d="" fill="#000000" transform="translate(0,0)"/>
<path d="" fill="#000000" transform="translate(0,0)"/>
<path d="" fill="#000000" transform="translate(0,0)"/>
<path d="" fill="#000000" transform="translate(0,0)"/>
<path d="" fill="#000000" transform="translate(0,0)"/>
<path d="" fill="#000000" transform="translate(0,0)"/>
<path d="" fill="#000000" transform="translate(0,0)"/>
<path d="" fill="#000000" transform="translate(0,0)"/>
<path d="" fill="#000000" transform="translate(0,0)"/>
<path d="" fill="#000000" transform="translate(0,0)"/>
<path d="" fill="#000000" transform="translate(0,0)"/>
<path d="" fill="#000000" transform="translate(0,0)"/>
<path d="" fill="#000000" transform="translate(0,0)"/>
<path d="" fill="#000000" transform="translate(0,0)"/>
<path d="" fill="#000000" transform="translate(0,0)"/>
<path d="" fill="#000000" transform="translate(0,0)"/>
<path d="" fill="#000000" transform="translate(0,0)"/>
<path d="" fill="#000000" transform="translate(0,0)"/>
<path d="" fill="#000000" transform="translate(0,0)"/>
<path d="" fill="#000000" transform="translate(0,0)"/>
<path d="" fill="#000000" transform="translate(0,0)"/>
<path d="" fill="#000000" transform="translate(0,0)"/>
<path d="" fill="#000000" transform="translate(0,0)"/>
<path d="" fill="#000000" transform="translate(0,0)"/>
<path d="" fill="#000000" transform="translate(0,0)"/>
<path d="" fill="#000000" transform="translate(0,0)"/>
<path d="" fill="#000000" transform="translate(0,0)"/>
<path d="" fill="#000000" transform="translate(0,0)"/>
<path d="" fill="#000000" transform="translate(0,0)"/>
<path d="" fill="#000000" transform="translate(0,0)"/>
<path d="" fill="#000000" transform="translate(0,0)"/>
<path d="" fill="#000000" transform="translate(0,0)"/>
<path d="" fill="#000000" transform="translate(0,0)"/>
<path d="" fill="#000000" transform="translate(0,0)"/>
<path d="" fill="#000000" transform="translate(0,0)"/>
<path d="" fill="#000000" transform="translate(0,0)"/>
<path d="" fill="#000000" transform="translate(0,0)"/>
<path d="" fill="#000000" transform="translate(0,0)"/>
<path d="" fill="#000000" transform="translate(0,0)"/>
<path d="" fill="#000000" transform="translate(0,0)"/>
<path d="" fill="#000000" transform="translate(0,0)"/>
<path d="" fill="#000000" transform="translate(0,0)"/>
<path d="" fill="#000000" transform="translate(0,0)"/>
<path d="" fill="#000000" transform="translate(0,0)"/>
<path d="" fill="#000000" transform="translate(0,0)"/>
<path d="" fill="#000000" transform="translate(0,0)"/>
<path d="" fill="#000000" transform="translate(0,0)"/>
<path d="" fill="#000000" transform="translate(0,0)"/>
<path d="" fill="#000000" transform="translate(0,0)"/>
<path d="" fill="#000000" transform="translate(0,0)"/>
<path d="" fill="#000000" transform="translate(0,0)"/>
<path d="" fill="#000000" transform="translate(0,0)"/>
<path d="" fill="#000000" transform="translate(0,0)"/>
<path d="" fill="#000000" transform="translate(0,0)"/>
<path d="" fill="#000000" transform="translate(0,0)"/>
<path d="" fill="#000000" transform="translate(0,0)"/>
<path d="" fill="#000000" transform="translate(0,0)"/>
<path d="" fill="#000000" transform="translate(0,0)"/>
<path d="" fill="#000000" transform="translate(0,0)"/>
<path d="" fill="#000000" transform="translate(0,0)"/>
<path d="" fill="#000000" transform="translate(0,0)"/>
<path d="" fill="#000000" transform="translate(0,0)"/>
<path d="" fill="#000000" transform="translate(0,0)"/>
<path d="" fill="#000000" transform="translate(0,0)"/>
</svg>
